<svg version="1.1" id="Layer_1" xmlns="http://www.w3.org/2000/svg" xmlns:xlink="http://www.w3.org/1999/xlink" x="0px" y="0px"
	 width="100%" viewBox="0 0 128 128" enable-background="new 0 0 128 128" xml:space="preserve">
<path fill="#DCDFEA" opacity="1.000000" stroke="none" 
	d="
M33.000000,113.000000 
	C27.977905,113.001335 22.955811,113.002670 17.567429,112.598694 
	C17.387594,106.400284 17.945269,100.590355 17.683558,94.817574 
	C17.131411,82.638397 20.787901,77.665939 34.187210,72.040237 
	C35.985233,73.465965 37.487988,74.735825 39.164902,76.305801 
	C43.380428,78.068108 47.393948,79.615265 51.476063,80.953133 
	C53.256374,81.536606 55.177288,81.691078 57.183296,82.352554 
	C59.946117,80.315773 63.142677,80.733833 66.318932,80.248909 
	C71.494835,79.458694 72.135696,82.546059 73.757195,85.910950 
	C73.619926,84.253174 73.482658,82.595390 73.839615,80.952721 
	C76.480675,80.971367 78.684578,81.292572 80.763718,80.919136 
	C87.115074,79.778404 93.453911,78.426788 96.125961,71.226433 
	C96.124748,71.131126 96.000679,70.986389 96.329910,71.103966 
	C99.266716,72.648773 101.928673,73.986031 104.470352,75.522293 
	C109.487335,78.554703 113.174583,82.323654 113.167717,88.868103 
	C113.159279,96.911766 113.697876,104.956009 114.000000,113.000000 
	C87.979103,113.001335 61.958202,113.002678 35.449909,112.533669 
	C34.962513,105.514565 34.962513,98.965797 34.962513,92.417038 
	C34.308342,92.432014 33.654171,92.446991 33.000000,92.461967 
	C33.000000,99.307976 33.000000,106.153992 33.000000,113.000000 
z"/>
<path fill="#D9DCE7" opacity="1.000000" stroke="none" 
	d="
M52.000000,24.000000 
	C52.287670,23.832590 52.575340,23.665180 53.292450,23.439333 
	C62.227203,19.062679 70.669479,18.457884 78.302498,24.950321 
	C90.627541,35.433670 95.397408,54.330841 89.888451,70.238159 
	C85.730865,73.862778 82.035965,77.731346 76.159828,77.417816 
	C75.777977,77.397446 75.331535,78.587669 74.533493,79.211098 
	C67.090263,78.755707 60.028679,78.303978 52.943180,77.595917 
	C50.412224,76.576958 47.905186,75.814331 45.313240,74.724579 
	C44.824646,73.913399 44.420956,73.429352 44.008949,72.972412 
	C44.000637,72.999504 44.053265,72.978432 43.918106,72.646805 
	C43.184219,72.190697 42.585495,72.066208 41.992531,71.973839 
	C41.998283,72.005959 42.060902,71.987572 42.261887,71.687912 
	C41.983780,70.907951 41.504688,70.427635 41.020126,69.976059 
	C41.014660,70.004784 41.071949,69.993301 41.042423,69.575851 
	C40.744991,62.921566 40.307041,56.686253 40.251122,50.447514 
	C40.176987,42.176502 42.997753,34.979752 48.805458,28.951620 
	C50.142754,27.563568 50.949242,25.664112 52.000000,24.000000 
M75.106964,72.923294 
	C79.318748,71.434372 84.026924,70.544807 84.349998,64.657249 
	C84.877007,55.053284 83.000435,46.147560 77.085686,38.312634 
	C70.654343,29.793425 60.414913,29.906582 54.099758,38.600060 
	C48.472721,46.346272 46.083599,55.086811 47.179802,64.479668 
	C47.464355,66.917900 49.746387,70.046013 51.964573,71.164864 
	C58.998398,74.712730 66.611015,75.230774 75.106964,72.923294 
z"/>
<path fill="#63667A" opacity="1.000000" stroke="none" 
	d="
M51.650223,24.024487 
	C50.949242,25.664112 50.142754,27.563568 48.805458,28.951620 
	C42.997753,34.979752 40.176987,42.176502 40.251122,50.447514 
	C40.307041,56.686253 40.744991,62.921566 40.637840,69.610626 
	C38.139172,70.670021 36.015553,71.277191 33.891933,71.884369 
	C20.787901,77.665939 17.131411,82.638397 17.683558,94.817574 
	C17.945269,100.590355 17.387594,106.400284 17.100571,112.596695 
	C16.671873,105.314331 16.224277,97.630737 16.090439,89.941681 
	C16.051683,87.715218 16.277151,85.013626 17.492105,83.332489 
	C20.131493,79.680374 23.262918,76.294785 26.630188,73.289940 
	C28.776628,71.374519 31.587854,70.027100 34.314957,68.984795 
	C37.616558,67.722923 38.068405,65.505669 38.103046,62.375896 
	C38.174339,55.934429 38.044521,49.378105 39.199921,43.089985 
	C40.621460,35.353416 44.340897,28.533484 51.650223,24.024487 
z"/>
<path fill="#63667A" opacity="1.000000" stroke="none" 
	d="
M90.054947,69.931068 
	C95.397408,54.330841 90.627541,35.433670 78.302498,24.950321 
	C70.669479,18.457884 62.227203,19.062679 53.360939,23.190447 
	C60.324406,15.743210 72.528549,17.047054 80.245720,23.696236 
	C89.231361,31.438351 93.999336,40.809242 93.014153,52.859028 
	C92.770638,55.837395 93.180138,58.870155 92.922089,61.846054 
	C92.653000,64.949348 93.376816,67.320999 96.999649,68.847305 
	C97.813446,69.155518 97.929718,69.357315 97.663010,69.733406 
	C96.853577,70.267265 96.427124,70.626823 96.000679,70.986389 
	C96.000679,70.986389 96.124748,71.131126 95.825806,71.043877 
	C93.702896,70.614777 91.878922,70.272919 90.054947,69.931068 
z"/>
<path fill="#64677A" opacity="1.000000" stroke="none" 
	d="
M96.329910,71.103958 
	C96.427124,70.626823 96.853577,70.267265 97.686722,69.848389 
	C98.093414,69.789085 98.000000,70.000000 98.000000,70.000000 
	C110.924171,75.139755 116.568222,80.933357 116.015839,94.622452 
	C115.822449,99.415092 116.063354,104.224236 115.931168,109.021027 
	C115.894661,110.345795 115.229279,111.653229 114.426224,112.984314 
	C113.697876,104.956009 113.159279,96.911766 113.167717,88.868103 
	C113.174583,82.323654 109.487335,78.554703 104.470352,75.522293 
	C101.928673,73.986031 99.266716,72.648773 96.329910,71.103958 
z"/>
<path fill="#E1830E" opacity="1.000000" stroke="none" 
	d="
M109.977478,58.047371 
	C107.837311,60.152500 106.047455,62.216782 104.878212,63.565296 
	C102.829834,61.521370 100.526581,59.223114 98.490334,57.191284 
	C100.159515,55.647274 102.620117,53.371197 104.523323,51.610718 
	C106.510643,53.279076 109.021774,55.387177 111.532898,57.495277 
	C111.445053,57.589859 111.373718,57.733562 111.266228,57.769699 
	C110.961327,57.872181 110.641647,57.930695 109.977478,58.047371 
z"/>
<path fill="#808294" opacity="1.000000" stroke="none" 
	d="
M33.332619,113.037369 
	C33.000000,106.153992 33.000000,99.307976 33.000000,92.461967 
	C33.654171,92.446991 34.308342,92.432014 34.962513,92.417038 
	C34.962513,98.965797 34.962513,105.514565 34.981255,112.531662 
	C34.555077,113.024910 34.110157,113.049828 33.332619,113.037369 
z"/>
<path fill="#5D6275" opacity="1.000000" stroke="none" 
	d="
M9.294384,80.483627 
	C9.239580,76.077965 11.611235,73.818520 13.937896,75.670815 
	C14.934834,76.464500 15.900195,78.752434 15.451007,79.630257 
	C14.195631,82.083557 12.000895,83.107925 9.294384,80.483627 
z"/>
<path fill="#DCDFEA" opacity="1.000000" stroke="none" 
	d="
M97.747314,69.936203 
	C98.000000,70.000000 98.093414,69.789085 98.069702,69.674103 
	C97.929718,69.357315 97.813446,69.155518 97.348587,68.976852 
	C97.164879,69.290802 97.329750,69.581604 97.747314,69.936203 
z"/>
<path fill="#B7BDCF" opacity="1.000000" stroke="none" 
	d="
M89.888451,70.238159 
	C91.878922,70.272919 93.702896,70.614777 95.827026,71.139183 
	C93.453911,78.426788 87.115074,79.778404 80.763718,80.919136 
	C78.684578,81.292572 76.480675,80.971367 73.788818,80.740257 
	C73.800926,80.080048 74.358032,79.647408 74.915146,79.214760 
	C75.331535,78.587669 75.777977,77.397446 76.159828,77.417816 
	C82.035965,77.731346 85.730865,73.862778 89.888451,70.238159 
z"/>
<path fill="#B8BECF" opacity="1.000000" stroke="none" 
	d="
M45.398148,75.051712 
	C47.905186,75.814331 50.412224,76.576958 53.093246,77.924515 
	C54.509003,79.701302 58.439178,78.024887 57.034351,82.040375 
	C55.177288,81.691078 53.256374,81.536606 51.476063,80.953133 
	C47.393948,79.615265 43.380428,78.068108 39.465561,76.133995 
	C40.066631,74.425453 40.541206,73.188835 41.276344,71.982208 
	C41.711571,72.003998 41.886234,71.995789 42.060902,71.987572 
	C42.060902,71.987572 41.998283,72.005959 42.126579,72.282730 
	C42.854336,72.699150 43.453800,72.838791 44.053265,72.978432 
	C44.053265,72.978432 44.000637,72.999504 43.913864,73.329468 
	C44.350777,74.123520 44.874462,74.587616 45.398148,75.051712 
z"/>
<path fill="#6C6F83" opacity="1.000000" stroke="none" 
	d="
M57.183296,82.352554 
	C58.439178,78.024887 54.509003,79.701302 53.117165,78.180862 
	C60.028679,78.303978 67.090263,78.755707 74.533493,79.211098 
	C74.358032,79.647408 73.800926,80.080048 73.294601,80.725151 
	C73.482658,82.595390 73.619926,84.253174 73.757195,85.910950 
	C72.135696,82.546059 71.494835,79.458694 66.318932,80.248909 
	C63.142677,80.733833 59.946117,80.315773 57.183296,82.352554 
z"/>
<path fill="#B5BBCF" opacity="1.000000" stroke="none" 
	d="
M41.015781,71.952217 
	C40.541206,73.188835 40.066631,74.425453 39.291397,75.833878 
	C37.487988,74.735825 35.985233,73.465965 34.187210,72.040237 
	C36.015553,71.277191 38.139172,70.670021 40.667366,70.028076 
	C41.071949,69.993301 41.014660,70.004784 40.903309,70.299911 
	C40.866566,71.047440 40.941174,71.499825 41.015781,71.952217 
z"/>
<path fill="#606275" opacity="1.000000" stroke="none" 
	d="
M74.703201,73.016251 
	C66.611015,75.230774 58.998398,74.712730 51.964573,71.164864 
	C49.746387,70.046013 47.464355,66.917900 47.179802,64.479668 
	C46.083599,55.086811 48.472721,46.346272 54.099758,38.600060 
	C60.414913,29.906582 70.654343,29.793425 77.085686,38.312634 
	C83.000435,46.147560 84.877007,55.053284 84.349998,64.657249 
	C84.026924,70.544807 79.318748,71.434372 74.703201,73.016251 
M58.221352,47.522545 
	C59.847088,47.507744 61.476654,47.557167 63.097507,47.460506 
	C64.797585,47.359119 66.489304,47.117638 68.184669,46.937382 
	C67.781410,48.510696 67.586731,50.178570 66.926323,51.635311 
	C65.918549,53.858276 64.588852,55.935299 63.165184,58.487839 
	C67.622772,58.858559 72.540352,54.375851 73.358910,50.142048 
	C74.169258,45.950676 72.306473,42.960506 68.474052,41.404240 
	C64.332085,39.722275 60.808151,41.701321 58.221352,47.522545 
z"/>
<path fill="#63667A" opacity="1.000000" stroke="none" 
	d="
M43.918106,72.646805 
	C43.453800,72.838791 42.854336,72.699150 42.120823,72.250610 
	C42.585495,72.066208 43.184219,72.190697 43.918106,72.646805 
z"/>
<path fill="#63667A" opacity="1.000000" stroke="none" 
	d="
M45.313240,74.724579 
	C44.874462,74.587616 44.350777,74.123520 43.922180,73.302368 
	C44.420956,73.429352 44.824646,73.913399 45.313240,74.724579 
z"/>
<path fill="#63667A" opacity="1.000000" stroke="none" 
	d="
M41.276344,71.982208 
	C40.941174,71.499825 40.866566,71.047440 40.908775,70.271187 
	C41.504688,70.427635 41.983780,70.907951 42.261887,71.687912 
	C41.886234,71.995789 41.711571,72.003998 41.276344,71.982208 
z"/>
<path fill="#D88115" opacity="1.000000" stroke="none" 
	d="
M58.251152,47.155361 
	C60.808151,41.701321 64.332085,39.722275 68.474052,41.404240 
	C72.306473,42.960506 74.169258,45.950676 73.358910,50.142048 
	C72.540352,54.375851 67.622772,58.858559 63.165184,58.487839 
	C64.588852,55.935299 65.918549,53.858276 66.926323,51.635311 
	C67.586731,50.178570 67.781410,48.510696 68.184669,46.937386 
	C66.489304,47.117638 64.797585,47.359119 63.097507,47.460506 
	C61.476654,47.557167 59.847088,47.507744 58.251152,47.155361 
z"/>
</svg>