<svg version="1.1" id="Layer_1" xmlns="http://www.w3.org/2000/svg" xmlns:xlink="http://www.w3.org/1999/xlink" x="0px" y="0px"
	 height="64px" width="64px" viewBox="0 0 512 512" enable-background="new 0 0 512 512" xml:space="preserve">
<path fill="#000000" opacity="0.000000" stroke="none" 
	d="
M339.000000,513.000000 
	C226.027451,513.000000 113.554893,513.000000 1.041169,513.000000 
	C1.041169,342.402435 1.041169,171.804840 1.041169,1.103623 
	C171.555893,1.103623 342.111877,1.103623 512.833923,1.103623 
	C512.833923,171.666534 512.833923,342.333252 512.833923,513.000000 
	C455.138153,513.000000 397.319061,513.000000 339.000000,513.000000 
M387.935913,192.991241 
	C372.285675,192.994263 356.616028,193.467361 340.992645,192.820923 
	C331.876099,192.443726 325.182922,194.936752 320.295288,202.780975 
	C317.564240,196.184387 312.798828,192.903015 305.489655,192.951828 
	C289.337708,193.059708 273.184021,192.908432 257.004242,191.943100 
	C257.002777,180.488953 257.027649,169.034683 256.969574,157.580826 
	C256.961456,155.980652 256.693970,154.344482 256.295135,152.789459 
	C252.892471,139.522903 243.955063,132.064758 231.278748,128.224014 
	C237.854034,125.526711 241.161819,120.799805 241.045456,113.517723 
	C240.873062,102.728546 241.006073,91.934486 241.914246,81.020126 
	C244.412292,81.012756 246.914612,81.095749 249.407425,80.977737 
	C253.593903,80.779549 257.722626,76.363800 256.915833,72.415916 
	C254.374207,59.979115 248.197571,49.699066 237.968887,41.986820 
	C228.239197,34.650791 217.236053,32.331997 205.219254,32.915913 
	C194.293198,33.446827 184.989746,37.396240 176.954971,44.565826 
	C165.487518,54.798454 160.308487,67.496964 160.856857,83.015022 
	C161.296631,95.459930 165.608719,105.760017 174.101807,114.659958 
	C180.801758,121.680885 188.828690,126.265549 198.216553,128.716187 
	C196.929214,129.000061 195.760605,129.083069 194.606949,128.986801 
	C186.059937,128.273575 178.568192,130.757233 171.795929,135.994995 
	C166.112457,140.390656 163.758209,146.726654 161.014969,152.044495 
	C161.009918,148.714401 161.080597,145.382111 160.983566,142.054703 
	C160.798294,135.702042 154.316742,129.078171 147.968704,129.037399 
	C136.318039,128.962570 124.665947,129.110779 112.085312,129.021271 
	C101.718681,129.069519 91.352058,129.117752 80.060234,129.018616 
	C69.410187,129.012405 58.760132,129.000763 48.110081,129.001663 
	C39.058708,129.002426 33.003128,134.990997 33.001797,143.951477 
	C32.997147,175.236176 33.270672,206.524704 32.827713,237.803131 
	C32.702095,246.673431 35.204247,253.021500 42.829472,257.632080 
	C34.430126,261.624878 30.976482,268.804077 33.053391,277.953918 
	C34.577316,284.667572 41.056923,288.984253 49.575268,289.003265 
	C66.380379,289.040741 83.185455,289.097076 99.601067,289.837006 
	C98.001160,290.103485 96.382721,290.288757 94.804184,290.648926 
	C76.936554,294.725586 62.147186,303.839050 50.521652,317.993805 
	C40.711067,329.938782 34.119740,343.718964 33.276016,359.000000 
	C32.157375,379.260254 32.944378,399.629059 33.033207,419.950684 
	C33.060917,426.290833 39.699745,432.917236 46.030220,432.964355 
	C56.353607,433.041229 66.678680,432.890381 77.787369,432.991638 
	C78.852493,433.047729 79.917618,433.103851 80.992523,434.047516 
	C81.018776,436.539307 80.625610,439.120575 81.135353,441.509186 
	C87.041344,469.183472 109.987106,485.252899 138.349823,480.572754 
	C160.827484,476.863678 178.592407,455.774567 177.809296,433.023163 
	C178.873810,432.960999 179.938339,432.898804 181.931732,432.967651 
	C230.653885,432.978424 279.376038,433.000519 328.098175,432.992157 
	C340.400238,432.990051 352.702301,432.890503 365.788300,432.991699 
	C366.852997,433.047760 367.917694,433.103821 368.992432,434.047516 
	C369.018738,436.539307 368.625610,439.120575 369.135345,441.509186 
	C375.041351,469.183624 397.987305,485.253082 426.349792,480.572815 
	C448.831146,476.863007 466.593353,455.770020 465.846100,433.022888 
	C475.249359,432.900818 481.095917,427.034760 480.954834,417.553192 
	C480.889069,413.134430 480.772705,408.639496 479.939331,404.321899 
	C475.308960,380.332336 460.795349,364.702484 438.341248,356.000458 
	C427.573364,351.827423 416.275360,353.217896 405.015656,352.116577 
	C403.540283,342.133270 402.104706,332.143860 400.579254,322.168213 
	C398.759735,310.269714 396.846222,298.385590 395.005402,286.490326 
	C393.486969,276.678131 391.973938,266.864746 390.533508,257.040894 
	C388.974579,246.408463 387.502625,235.763290 386.703796,225.032898 
	C387.420410,225.031158 388.137024,225.029419 388.989929,225.732788 
	C395.621552,236.628723 405.356842,241.455688 418.041809,241.052551 
	C427.032806,240.766800 432.994812,234.962326 432.998962,225.859512 
	C433.004181,214.380692 432.951782,202.901566 433.020416,191.423157 
	C433.055542,185.545074 430.349945,181.349854 425.271942,178.795059 
	C414.408112,173.329330 395.078766,179.137527 387.935913,192.991241 
z"/>
<path fill="#FFCE4B" opacity="1.000000" stroke="none" 
	d="
M385.992737,225.123672 
	C387.502625,235.763290 388.974579,246.408463 390.533508,257.040894 
	C391.973938,266.864746 393.486969,276.678131 395.005402,286.490326 
	C396.846222,298.385590 398.759735,310.269714 400.579254,322.168213 
	C402.104706,332.143860 403.540283,342.133270 404.844666,352.831360 
	C403.616364,354.003296 402.595612,354.591614 401.496368,354.898407 
	C374.315887,362.484039 356.527649,383.047882 353.163055,410.817902 
	C351.779938,422.233673 354.814972,427.876953 365.004364,432.835754 
	C352.702301,432.890503 340.400238,432.990051 328.098175,432.992157 
	C279.376038,433.000519 230.653885,432.978424 181.735474,432.695374 
	C189.828659,428.892120 193.211868,424.000854 192.923981,415.097137 
	C192.790695,410.974609 192.272308,406.794983 191.337051,402.778961 
	C184.105270,371.725433 156.408936,351.214630 124.416855,353.061157 
	C93.803604,354.828125 68.296021,379.874939 65.123436,411.283508 
	C63.973694,422.665894 66.859566,427.901489 77.003044,432.835632 
	C66.678680,432.890381 56.353607,433.041229 46.030220,432.964355 
	C39.699745,432.917236 33.060917,426.290833 33.033207,419.950684 
	C32.944378,399.629059 32.157375,379.260254 33.276016,359.000000 
	C34.119740,343.718964 40.711067,329.938782 50.521652,317.993805 
	C62.147186,303.839050 76.936554,294.725586 94.804184,290.648926 
	C96.382721,290.288757 98.001160,290.103485 100.260880,289.446472 
	C152.891891,289.040924 204.863083,289.025909 256.886841,289.254822 
	C256.939423,289.498718 256.877228,289.993500 256.570465,290.104950 
	C251.216431,295.272552 245.953491,300.133698 241.167786,305.426392 
	C231.843277,315.738739 227.860046,328.086365 234.097229,342.564270 
	C239.444611,354.976746 243.929550,367.758453 249.131989,380.236786 
	C251.259079,385.338684 254.270905,390.071747 256.955536,395.326752 
	C259.367096,400.222168 263.682373,400.867920 268.049194,400.951447 
	C276.369507,401.110626 284.751648,400.381195 293.005615,401.138306 
	C306.937286,402.416260 313.933350,393.245758 321.437439,383.871460 
	C329.386993,376.124695 336.882996,368.334625 344.707642,360.889984 
	C350.528259,355.352051 353.032867,348.756287 353.022980,340.867310 
	C352.974609,302.286255 353.004761,263.705109 353.473083,225.075378 
	C364.623627,225.059067 375.308167,225.091370 385.992737,225.123672 
z"/>
<path fill="#FFCE4B" opacity="1.000000" stroke="none" 
	d="
M43.161255,257.000732 
	C35.204247,253.021500 32.702095,246.673431 32.827713,237.803131 
	C33.270672,206.524704 32.997147,175.236176 33.001797,143.951477 
	C33.003128,134.990997 39.058708,129.002426 48.110081,129.001663 
	C58.760132,129.000763 69.410187,129.012405 80.526337,129.550385 
	C80.998344,137.573471 80.899597,145.066849 81.045204,152.555466 
	C81.150551,157.973923 84.040413,160.798843 89.467979,160.963013 
	C93.958763,161.098816 98.456947,161.023865 102.951508,160.993240 
	C110.282249,160.943298 112.942841,158.349350 112.989975,151.140549 
	C113.037872,143.815948 113.009445,136.490875 113.014450,129.166016 
	C124.665947,129.110779 136.318039,128.962570 147.968704,129.037399 
	C154.316742,129.078171 160.798294,135.702042 160.983566,142.054703 
	C161.080597,145.382111 161.009918,148.714401 161.031219,152.970276 
	C161.078339,177.607346 161.109192,201.318634 161.084259,225.496368 
	C161.064514,232.936005 161.100586,239.909210 160.785110,247.000610 
	C157.301666,250.374008 154.169754,253.629181 150.568115,256.920746 
	C114.452675,256.971649 78.806969,256.986176 43.161255,257.000732 
M90.139572,220.855347 
	C87.490013,228.375885 90.569412,232.920715 98.497002,232.980484 
	C108.288727,233.054321 118.081879,233.052795 127.873573,232.976074 
	C133.687027,232.930511 137.107330,229.739349 136.967575,224.762085 
	C136.833420,219.983505 133.534454,217.066193 127.896187,217.023941 
	C117.938492,216.949341 107.972343,216.793686 98.026772,217.148926 
	C95.505325,217.238998 93.048111,219.127487 90.139572,220.855347 
z"/>
<path fill="#FF6C5C" opacity="1.000000" stroke="none" 
	d="
M161.140060,225.029922 
	C161.109192,201.318634 161.078339,177.607346 161.089966,153.429474 
	C163.758209,146.726654 166.112457,140.390656 171.795929,135.994995 
	C178.568192,130.757233 186.059937,128.273575 194.606949,128.986801 
	C195.760605,129.083069 196.929214,129.000061 198.216553,128.716187 
	C188.828690,126.265549 180.801758,121.680885 174.101807,114.659958 
	C165.608719,105.760017 161.296631,95.459930 160.856857,83.015022 
	C160.308487,67.496964 165.487518,54.798454 176.954971,44.565826 
	C184.989746,37.396240 194.293198,33.446827 205.219254,32.915913 
	C217.236053,32.331997 228.239197,34.650791 237.968887,41.986820 
	C248.197571,49.699066 254.374207,59.979115 256.915833,72.415916 
	C257.722626,76.363800 253.593903,80.779549 249.407425,80.977737 
	C246.914612,81.095749 244.412292,81.012756 240.996292,81.030296 
	C234.916946,81.028351 229.753891,80.928162 224.594543,81.025063 
	C217.123383,81.165367 209.926620,86.357513 209.438889,93.663788 
	C208.668549,105.203201 209.233856,116.831772 209.233856,128.859650 
	C216.784210,128.859650 223.897308,128.859650 231.010422,128.859650 
	C243.955063,132.064758 252.892471,139.522903 256.295135,152.789459 
	C256.693970,154.344482 256.961456,155.980652 256.969574,157.580826 
	C257.027649,169.034683 257.002777,180.488953 256.551697,192.446381 
	C251.611099,192.965759 247.122925,193.011871 242.635071,192.992004 
	C231.734772,192.943741 225.797272,187.325958 224.987625,176.337738 
	C224.324677,167.340546 217.266052,160.769058 208.525909,161.012070 
	C199.802032,161.254623 192.994293,168.198700 193.051300,177.266388 
	C193.127441,189.368759 197.358139,199.919739 205.391403,209.041138 
	C213.104416,217.798935 223.064514,222.261871 233.645905,224.891754 
	C209.159317,224.982224 185.149689,225.006073 161.140060,225.029922 
z"/>
<path fill="#FF6C5C" opacity="1.000000" stroke="none" 
	d="
M365.396332,432.913696 
	C354.814972,427.876953 351.779938,422.233673 353.163055,410.817902 
	C356.527649,383.047882 374.315887,362.484039 401.496368,354.898407 
	C402.595612,354.591614 403.616364,354.003296 404.905457,353.257812 
	C416.275360,353.217896 427.573364,351.827423 438.341248,356.000458 
	C460.795349,364.702484 475.308960,380.332336 479.939331,404.321899 
	C480.772705,408.639496 480.889069,413.134430 480.954834,417.553192 
	C481.095917,427.034760 475.249359,432.900818 464.966919,433.031616 
	C453.727539,433.081604 443.367310,433.122864 432.541626,433.100983 
	C421.714813,433.079956 411.353516,433.122070 400.527588,433.103394 
	C389.702759,433.081665 379.342590,433.120789 368.982391,433.159912 
	C367.917694,433.103821 366.852997,433.047760 365.396332,432.913696 
z"/>
<path fill="#FF6C5C" opacity="1.000000" stroke="none" 
	d="
M77.395203,432.913635 
	C66.859566,427.901489 63.973694,422.665894 65.123436,411.283508 
	C68.296021,379.874939 93.803604,354.828125 124.416855,353.061157 
	C156.408936,351.214630 184.105270,371.725433 191.337051,402.778961 
	C192.272308,406.794983 192.790695,410.974609 192.923981,415.097137 
	C193.211868,424.000854 189.828659,428.892120 181.271027,432.629822 
	C179.938339,432.898804 178.873810,432.960999 176.948685,433.031738 
	C165.727661,433.081635 155.367264,433.122955 144.541351,433.101196 
	C133.714737,433.080200 123.353600,433.122253 112.527832,433.103394 
	C101.703049,433.081635 91.342896,433.120789 80.982742,433.159943 
	C79.917618,433.103851 78.852493,433.047729 77.395203,432.913635 
z"/>
<path fill="#FF6C5C" opacity="1.000000" stroke="none" 
	d="
M42.995361,257.316406 
	C78.806969,256.986176 114.452675,256.971649 151.034027,256.970703 
	C158.318497,256.882690 164.667343,256.781036 171.484467,256.682861 
	C174.770645,256.790985 177.588425,256.982605 180.406448,256.986450 
	C200.157318,257.013397 219.908432,256.951843 239.659073,257.022369 
	C250.083160,257.059601 256.845917,263.769348 256.976898,274.082092 
	C257.040070,279.056976 256.888580,284.034546 256.834290,289.010895 
	C204.863083,289.025909 152.891891,289.040924 100.455612,289.100769 
	C83.185455,289.097076 66.380379,289.040741 49.575268,289.003265 
	C41.056923,288.984253 34.577316,284.667572 33.053391,277.953918 
	C30.976482,268.804077 34.430126,261.624878 42.995361,257.316406 
z"/>
<path fill="#FFCD4B" opacity="1.000000" stroke="none" 
	d="
M234.122849,224.825134 
	C223.064514,222.261871 213.104416,217.798935 205.391403,209.041138 
	C197.358139,199.919739 193.127441,189.368759 193.051300,177.266388 
	C192.994293,168.198700 199.802032,161.254623 208.525909,161.012070 
	C217.266052,160.769058 224.324677,167.340546 224.987625,176.337738 
	C225.797272,187.325958 231.734772,192.943741 242.635071,192.992004 
	C247.122925,193.011871 251.611099,192.965759 256.565094,192.906281 
	C273.184021,192.908432 289.337708,193.059708 305.489655,192.951828 
	C312.798828,192.903015 317.564240,196.184387 320.637634,203.398560 
	C320.959564,207.638336 320.939148,211.260513 320.607361,215.050568 
	C317.559662,221.792053 312.848114,225.135315 305.510590,225.051193 
	C290.690704,224.881287 275.867096,224.951431 261.046417,225.082855 
	C259.689697,225.094894 258.343262,226.261932 256.584869,226.940811 
	C248.826080,226.267715 241.474472,225.546417 234.122849,224.825134 
z"/>
<path fill="#4D5A6A" opacity="1.000000" stroke="none" 
	d="
M433.007111,433.164124 
	C443.367310,433.122864 453.727539,433.081604 464.552002,433.100250 
	C466.593353,455.770020 448.831146,476.863007 426.349792,480.572815 
	C397.987305,485.253082 375.041351,469.183624 369.135345,441.509186 
	C368.625610,439.120575 369.018738,436.539307 368.987427,433.603699 
	C379.342590,433.120789 389.702759,433.081665 400.539368,433.486328 
	C402.599243,443.444000 409.082214,449.319061 417.633209,448.989288 
	C426.008118,448.666321 431.995789,442.502899 433.007111,433.164124 
z"/>
<path fill="#4D5A6A" opacity="1.000000" stroke="none" 
	d="
M145.006851,433.164246 
	C155.367264,433.122955 165.727661,433.081635 176.552338,433.100220 
	C178.592407,455.774567 160.827484,476.863678 138.349823,480.572754 
	C109.987106,485.252899 87.041344,469.183472 81.135353,441.509186 
	C80.625610,439.120575 81.018776,436.539307 80.987633,433.603729 
	C91.342896,433.120789 101.703049,433.081635 112.539520,433.486328 
	C114.599182,443.443939 121.082222,449.319061 129.633194,448.989319 
	C138.008270,448.666321 143.996323,442.502441 145.006851,433.164246 
z"/>
<path fill="#FF6C5C" opacity="1.000000" stroke="none" 
	d="
M388.853119,192.975296 
	C395.078766,179.137527 414.408112,173.329330 425.271942,178.795059 
	C430.349945,181.349854 433.055542,185.545074 433.020416,191.423157 
	C432.951782,202.901566 433.004181,214.380692 432.998962,225.859512 
	C432.994812,234.962326 427.032806,240.766800 418.041809,241.052551 
	C405.356842,241.455688 395.621552,236.628723 388.938354,225.009583 
	C383.527557,213.855087 384.385925,203.417130 388.853119,192.975296 
z"/>
<path fill="#4D5A6A" opacity="1.000000" stroke="none" 
	d="
M388.394531,192.983276 
	C384.385925,203.417130 383.527557,213.855087 388.870209,224.657028 
	C388.137024,225.029419 387.420410,225.031158 386.348267,225.078278 
	C375.308167,225.091370 364.623627,225.059067 353.006500,225.029083 
	C348.288330,225.020813 344.459351,224.638367 340.725739,225.073654 
	C331.723450,226.123215 325.123322,222.941620 320.918732,214.882690 
	C320.939148,211.260513 320.959564,207.638336 320.948303,203.566132 
	C325.182922,194.936752 331.876099,192.443726 340.992645,192.820923 
	C356.616028,193.467361 372.285675,192.994263 388.394531,192.983276 
z"/>
<path fill="#FFDCB6" opacity="1.000000" stroke="none" 
	d="
M231.144592,128.541840 
	C223.897308,128.859650 216.784210,128.859650 209.233856,128.859650 
	C209.233856,116.831772 208.668549,105.203201 209.438889,93.663788 
	C209.926620,86.357513 217.123383,81.165367 224.594543,81.025063 
	C229.753891,80.928162 234.916946,81.028351 240.543701,81.091492 
	C241.006073,91.934486 240.873062,102.728546 241.045456,113.517723 
	C241.161819,120.799805 237.854034,125.526711 231.144592,128.541840 
z"/>
<path fill="#F9B32F" opacity="1.000000" stroke="none" 
	d="
M112.549881,129.093628 
	C113.009445,136.490875 113.037872,143.815948 112.989975,151.140549 
	C112.942841,158.349350 110.282249,160.943298 102.951508,160.993240 
	C98.456947,161.023865 93.958763,161.098816 89.467979,160.963013 
	C84.040413,160.798843 81.150551,157.973923 81.045204,152.555466 
	C80.899597,145.066849 80.998344,137.573471 80.988937,129.624054 
	C91.352058,129.117752 101.718681,129.069519 112.549881,129.093628 
z"/>
<path fill="#000000" opacity="1.000000" stroke="none" 
	d="
M320.607361,215.050568 
	C325.123322,222.941620 331.723450,226.123215 340.725739,225.073654 
	C344.459351,224.638367 348.288330,225.020813 352.540527,225.077682 
	C353.004761,263.705109 352.974609,302.286255 353.022980,340.867310 
	C353.032867,348.756287 350.528259,355.352051 344.707642,360.889984 
	C336.882996,368.334625 329.386993,376.124695 321.383545,383.463654 
	C320.681580,374.818085 314.655334,369.035217 306.296722,368.995087 
	C300.536621,368.967438 294.776733,368.893585 289.010651,368.381775 
	C289.002930,334.845184 289.011566,301.767242 288.974030,268.689301 
	C288.971802,266.728760 288.780640,264.729584 288.369934,262.814331 
	C284.560638,245.050766 273.415924,233.657059 256.992035,226.892624 
	C258.343262,226.261932 259.689697,225.094894 261.046417,225.082855 
	C275.867096,224.951431 290.690704,224.881287 305.510590,225.051193 
	C312.848114,225.135315 317.559662,221.792053 320.607361,215.050568 
z"/>
<path fill="#4D5A6A" opacity="1.000000" stroke="none" 
	d="
M256.584869,226.940811 
	C273.415924,233.657059 284.560638,245.050766 288.369934,262.814331 
	C288.780640,264.729584 288.971802,266.728760 288.974030,268.689301 
	C289.011566,301.767242 289.002930,334.845184 288.546204,368.441559 
	C277.777679,368.979889 267.467468,368.999847 257.101074,368.554688 
	C256.989014,342.057587 256.933136,316.025543 256.877228,289.993500 
	C256.877228,289.993500 256.939423,289.498718 256.886841,289.254822 
	C256.888580,284.034546 257.040070,279.056976 256.976898,274.082092 
	C256.845917,263.769348 250.083160,257.059601 239.659073,257.022369 
	C219.908432,256.951843 200.157318,257.013397 180.406448,256.986450 
	C177.588425,256.982605 174.770645,256.790985 171.249939,256.455261 
	C167.410309,253.110245 164.273483,249.996323 161.136658,246.882401 
	C161.100586,239.909210 161.064514,232.936005 161.084259,225.496368 
	C185.149689,225.006073 209.159317,224.982224 233.645905,224.891754 
	C241.474472,225.546417 248.826080,226.267715 256.584869,226.940811 
z"/>
<path fill="#FF6C5C" opacity="1.000000" stroke="none" 
	d="
M257.157288,369.019775 
	C267.467468,368.999847 277.777679,368.979889 288.552307,368.900177 
	C294.776733,368.893585 300.536621,368.967438 306.296722,368.995087 
	C314.655334,369.035217 320.681580,374.818085 321.071045,383.568604 
	C313.933350,393.245758 306.937286,402.416260 293.005615,401.138306 
	C284.751648,400.381195 276.369507,401.110626 268.049194,400.951447 
	C263.682373,400.867920 259.367096,400.222168 257.007416,394.859924 
	C257.041779,385.699219 257.099518,377.359497 257.157288,369.019775 
z"/>
<path fill="#000000" opacity="1.000000" stroke="none" 
	d="
M257.101105,368.554688 
	C257.099518,377.359497 257.041779,385.699219 256.932129,394.505768 
	C254.270905,390.071747 251.259079,385.338684 249.131989,380.236786 
	C243.929550,367.758453 239.444611,354.976746 234.097229,342.564270 
	C227.860046,328.086365 231.843277,315.738739 241.167786,305.426392 
	C245.953491,300.133698 251.216431,295.272552 256.570465,290.104950 
	C256.933136,316.025543 256.989014,342.057587 257.101105,368.554688 
z"/>
<path fill="#F9B32F" opacity="1.000000" stroke="none" 
	d="
M90.350479,220.522461 
	C93.048111,219.127487 95.505325,217.238998 98.026772,217.148926 
	C107.972343,216.793686 117.938492,216.949341 127.896187,217.023941 
	C133.534454,217.066193 136.833420,219.983505 136.967575,224.762085 
	C137.107330,229.739349 133.687027,232.930511 127.873573,232.976074 
	C118.081879,233.052795 108.288727,233.054321 98.497002,232.980484 
	C90.569412,232.920715 87.490013,228.375885 90.350479,220.522461 
z"/>
<path fill="#000000" opacity="1.000000" stroke="none" 
	d="
M160.785110,247.000610 
	C164.273483,249.996323 167.410309,253.110245 170.781647,256.451782 
	C164.667343,256.781036 158.318497,256.882690 151.503754,256.934326 
	C154.169754,253.629181 157.301666,250.374008 160.785110,247.000610 
z"/>
<path fill="#DDDDDE" opacity="1.000000" stroke="none" 
	d="
M432.541626,433.100983 
	C431.995789,442.502899 426.008118,448.666321 417.633209,448.989288 
	C409.082214,449.319061 402.599243,443.444000 401.004028,433.547180 
	C411.353516,433.122070 421.714813,433.079956 432.541626,433.100983 
z"/>
<path fill="#DDDDDE" opacity="1.000000" stroke="none" 
	d="
M144.541351,433.101196 
	C143.996323,442.502441 138.008270,448.666321 129.633194,448.989319 
	C121.082222,449.319061 114.599182,443.443939 113.004158,433.547272 
	C123.353600,433.122253 133.714737,433.080200 144.541351,433.101196 
z"/>
</svg>