<svg version="1.1" id="Layer_1" xmlns="http://www.w3.org/2000/svg"
	xmlns:xlink="http://www.w3.org/1999/xlink" x="0px" y="0px"
	width="100%" viewBox="0 0 512 512" enable-background="new 0 0 512 512" xml:space="preserve">
<path fill="#5EC783" opacity="1.000000" stroke="none" 
	d="
M243.000000,1.000001 
	C264.687561,1.000000 286.375122,1.000000 308.304047,1.382490 
	C309.221741,2.166515 309.855957,2.803989 310.580872,2.933345 
	C318.445892,4.336813 326.387146,5.373533 334.189240,7.058396 
	C360.451111,12.729664 384.711243,23.368013 407.049255,38.123924 
	C423.182373,48.781010 438.111206,61.139202 449.898163,76.595222 
	C459.175354,88.760162 468.021332,101.355759 475.911591,114.451294 
	C486.143372,131.433060 492.615662,150.177536 496.587799,169.532700 
	C499.309418,182.794373 501.084595,196.379349 501.746674,209.895050 
	C502.308197,221.359283 501.132111,232.981415 499.894104,244.443954 
	C498.037781,261.631500 492.185272,277.792542 484.285522,293.005371 
	C473.101318,314.543121 457.454407,332.541718 438.170563,347.358185 
	C420.585449,360.869476 401.553589,371.747009 380.597839,379.084808 
	C370.503998,382.619293 360.274902,385.767487 349.674011,389.075439 
	C346.616455,389.421112 343.997101,389.826050 341.366547,390.135803 
	C321.916229,392.426086 302.516815,395.637390 282.998627,396.739868 
	C257.844482,398.160675 232.892105,394.852905 208.199326,389.832672 
	C205.871765,389.359467 203.339676,389.892212 200.925446,389.562073 
	C200.505478,388.789978 200.114853,388.185974 199.612106,388.070618 
	C183.712952,384.422607 168.491379,378.866638 153.739090,371.953064 
	C136.789459,364.009674 120.798141,354.363800 106.803978,342.014618 
	C93.828247,330.564178 82.283630,317.704987 73.051842,302.758087 
	C60.005489,281.635162 52.119812,258.745911 50.319759,234.281830 
	C49.004822,216.410858 49.437252,198.360062 52.772190,180.412064 
	C56.430344,160.724594 62.078033,141.782837 70.707512,123.844238 
	C85.416451,93.267960 105.817917,67.108772 133.003815,46.466034 
	C148.144089,34.969746 164.290863,25.099094 181.937912,18.130978 
	C201.018417,10.596845 220.622971,4.572217 241.284042,2.901757 
	C241.903229,2.851696 242.430099,1.659626 243.000000,1.000001 
M276.069824,112.074966 
	C247.510834,112.120163 219.165207,114.155724 191.565521,122.088966 
	C171.323318,127.907394 152.613525,136.649246 137.219864,152.508850 
	C134.572052,155.719803 131.735382,158.794678 129.307480,162.164108 
	C114.965431,182.068008 110.715591,204.927429 110.181679,228.793442 
	C109.626686,253.601379 118.493210,274.702179 135.860428,292.254822 
	C153.282913,309.863312 174.719498,320.641022 198.031219,328.003204 
	C233.377792,339.166199 269.615509,341.371094 306.260803,337.706726 
	C333.641846,334.968750 360.049866,328.312073 384.484436,315.199707 
	C407.075500,303.076660 425.751709,286.941956 435.535980,262.487640 
	C444.398407,240.337357 442.375305,217.677902 437.208160,195.149460 
	C433.495483,178.962646 426.240753,164.487030 413.897217,152.126556 
	C405.183838,142.923767 394.813202,136.043762 383.368195,130.799744 
	C349.552368,115.305595 313.512939,112.356880 276.069824,112.074966 
M346.501923,72.769638 
	C348.809998,76.152084 352.062073,76.966560 355.688934,75.615997 
	C359.314148,74.266068 360.248932,71.105392 360.191040,67.511620 
	C360.132141,63.858387 360.296570,60.196098 360.100281,56.551937 
	C359.864746,52.179344 356.855316,49.096512 352.917267,49.156525 
	C348.643768,49.221653 345.736328,51.641129 345.524994,55.760494 
	C345.247620,61.166981 345.879395,66.620110 346.501923,72.769638 
M191.956329,53.844776 
	C191.742325,58.962727 191.189301,64.095772 191.416382,69.194077 
	C191.615463,73.663597 194.869659,76.246185 198.987213,76.155304 
	C203.200424,76.062309 205.868088,73.455093 206.120682,68.810913 
	C206.318878,65.166908 206.139908,61.503979 206.212799,57.851139 
	C206.289871,53.989563 205.005508,50.930645 201.158310,49.599674 
	C197.296738,48.263729 194.371841,49.757900 191.956329,53.844776 
M265.469818,60.755558 
	C266.064514,55.317841 260.819427,48.082325 255.667191,47.232975 
	C251.844864,46.602863 248.023224,49.361115 247.293839,53.276424 
	C246.602692,56.986317 250.851746,63.198311 255.617294,65.140800 
	C259.857269,66.869064 262.979126,65.263878 265.469818,60.755558 
M287.130768,53.975185 
	C284.825958,60.650570 287.795654,66.143410 293.492096,65.741318 
	C297.797821,65.437401 303.954224,60.007965 303.744781,55.733604 
	C303.617798,53.141979 302.200531,49.726540 300.212280,48.379185 
	C298.456543,47.189384 294.886932,47.769966 292.527527,48.657261 
	C290.557465,49.398151 289.180084,51.715126 287.130768,53.975185 
z"/>
<path fill="#000000" opacity="0.000000" stroke="none" 
	d="
M242.531342,1.000001 
	C242.430099,1.659626 241.903229,2.851696 241.284042,2.901757 
	C220.622971,4.572217 201.018417,10.596845 181.937912,18.130978 
	C164.290863,25.099094 148.144089,34.969746 133.003815,46.466034 
	C105.817917,67.108772 85.416451,93.267960 70.707512,123.844238 
	C62.078033,141.782837 56.430344,160.724594 52.772190,180.412064 
	C49.437252,198.360062 49.004822,216.410858 50.319759,234.281830 
	C52.119812,258.745911 60.005489,281.635162 73.051842,302.758087 
	C82.283630,317.704987 93.828247,330.564178 106.803978,342.014618 
	C120.798141,354.363800 136.789459,364.009674 153.739090,371.953064 
	C168.491379,378.866638 183.712952,384.422607 199.612106,388.070618 
	C200.114853,388.185974 200.505478,388.789978 200.603241,389.696655 
	C191.143524,397.448334 182.028931,404.669617 172.613083,412.047668 
	C158.694229,426.778168 147.799286,443.071869 140.522583,461.936859 
	C127.364616,457.043091 114.601952,452.113464 101.911461,446.715088 
	C102.323288,439.332001 102.521248,432.406860 103.045380,425.506531 
	C103.502716,419.485687 104.198524,413.475067 105.017723,407.491241 
	C106.593956,395.977692 98.082184,387.200989 87.061981,390.191681 
	C73.590874,393.847534 60.436317,398.669830 46.991543,402.680115 
	C46.016918,401.548309 45.230057,400.686127 44.369068,399.905731 
	C34.817707,391.248596 18.860662,394.814087 14.729576,406.982361 
	C12.920733,412.310364 12.392506,418.206696 12.089455,423.887939 
	C11.091235,442.601471 12.720325,461.060791 19.069267,478.853851 
	C24.064388,492.852814 30.027620,506.143646 45.707256,511.483673 
	C45.948948,511.565979 45.908691,512.476135 46.000000,513.000000 
	C31.008217,513.000000 16.016434,513.000000 1.018487,513.000000 
	C1.012325,342.435028 1.012325,171.870071 1.012325,1.000000 
	C81.353973,1.000000 161.708328,1.000000 242.531342,1.000001 
z"/>
<path fill="#000000" opacity="0.000000" stroke="none" 
	d="
M350.107056,389.090607 
	C360.274902,385.767487 370.503998,382.619293 380.597839,379.084808 
	C401.553589,371.747009 420.585449,360.869476 438.170563,347.358185 
	C457.454407,332.541718 473.101318,314.543121 484.285522,293.005371 
	C492.185272,277.792542 498.037781,261.631500 499.894104,244.443954 
	C501.132111,232.981415 502.308197,221.359283 501.746674,209.895050 
	C501.084595,196.379349 499.309418,182.794373 496.587799,169.532700 
	C492.615662,150.177536 486.143372,131.433060 475.911591,114.451294 
	C468.021332,101.355759 459.175354,88.760162 449.898163,76.595222 
	C438.111206,61.139202 423.182373,48.781010 407.049255,38.123924 
	C384.711243,23.368013 360.451111,12.729664 334.189240,7.058396 
	C326.387146,5.373533 318.445892,4.336813 310.580872,2.933345 
	C309.855957,2.803989 309.221741,2.166515 308.772705,1.382490 
	C376.963806,1.000000 444.927612,1.000000 512.940674,1.000000 
	C512.940674,171.666672 512.940674,342.333344 512.940674,513.000000 
	C477.899994,513.000000 442.918671,513.000000 407.129272,512.763123 
	C407.077393,511.937073 407.788940,511.276672 408.596924,510.770020 
	C415.289032,506.573914 418.932434,500.510681 417.873505,492.680817 
	C416.767273,484.501160 415.370270,476.227051 412.846405,468.398499 
	C405.888153,446.815186 394.997650,427.468719 377.956421,411.611633 
	C368.580536,403.902435 359.343811,396.496521 350.107056,389.090607 
z"/>
<path fill="#5EC783" opacity="1.000000" stroke="none" 
	d="
M378.095551,411.914948 
	C394.997650,427.468719 405.888153,446.815186 412.846405,468.398499 
	C415.370270,476.227051 416.767273,484.501160 417.873505,492.680817 
	C418.932434,500.510681 415.289032,506.573914 408.596924,510.770020 
	C407.788940,511.276672 407.077393,511.937073 406.660583,512.763123 
	C380.979095,513.000000 354.958221,513.000000 328.408630,512.571411 
	C327.349854,501.181183 324.895020,490.765472 319.387970,481.148376 
	C302.874603,452.310730 267.613770,445.644165 243.654358,467.152313 
	C230.132782,479.290558 224.086975,494.945221 224.000000,513.000000 
	C199.312439,513.000000 174.624878,513.000000 149.190887,512.796875 
	C135.573029,506.535828 131.956787,499.607422 134.919296,485.441956 
	C136.575424,477.523163 138.896454,469.743378 140.917877,461.900970 
	C147.799286,443.071869 158.694229,426.778168 172.964294,412.192383 
	C205.623734,422.690002 238.595673,427.606293 272.160645,427.780487 
	C288.550751,427.865570 305.020844,426.575592 321.328949,424.771088 
	C340.667419,422.631256 359.733154,418.668518 378.095551,411.914948 
z"/>
<path fill="#3CB767" opacity="1.000000" stroke="none" 
	d="
M140.522583,461.936859 
	C138.896454,469.743378 136.575424,477.523163 134.919296,485.441956 
	C131.956787,499.607422 135.573029,506.535828 148.722229,512.796875 
	C114.979103,513.000000 80.958214,513.000000 46.468658,513.000000 
	C45.908691,512.476135 45.948948,511.565979 45.707256,511.483673 
	C30.027620,506.143646 24.064388,492.852814 19.069267,478.853851 
	C12.720325,461.060791 11.091235,442.601471 12.089455,423.887939 
	C12.392506,418.206696 12.920733,412.310364 14.729576,406.982361 
	C18.860662,394.814087 34.817707,391.248596 44.369068,399.905731 
	C45.230057,400.686127 46.016918,401.548309 47.013184,403.015442 
	C59.215229,417.948395 73.233826,429.984985 88.877762,440.115784 
	C92.996643,442.783142 97.508095,444.844299 101.839279,447.183838 
	C114.601952,452.113464 127.364616,457.043091 140.522583,461.936859 
z"/>
<path fill="#F4EA72" opacity="1.000000" stroke="none" 
	d="
M224.468658,513.000000 
	C224.086975,494.945221 230.132782,479.290558 243.654358,467.152313 
	C267.613770,445.644165 302.874603,452.310730 319.387970,481.148376 
	C324.895020,490.765472 327.349854,501.181183 327.940002,512.571411 
	C293.645782,513.000000 259.291534,513.000000 224.468658,513.000000 
z"/>
<path fill="#FFD4BE" opacity="1.000000" stroke="none" 
	d="
M414.210968,152.703690 
	C426.240753,164.487030 433.495483,178.962646 437.208160,195.149460 
	C442.375305,217.677902 444.398407,240.337357 435.535980,262.487640 
	C425.751709,286.941956 407.075500,303.076660 384.484436,315.199707 
	C360.049866,328.312073 333.641846,334.968750 306.260803,337.706726 
	C269.615509,341.371094 233.377792,339.166199 198.031219,328.003204 
	C174.719498,320.641022 153.282913,309.863312 135.860428,292.254822 
	C118.493210,274.702179 109.626686,253.601379 110.181679,228.793442 
	C110.715591,204.927429 114.965431,182.068008 129.307480,162.164108 
	C131.735382,158.794678 134.572052,155.719803 137.575241,152.714600 
	C142.049057,163.442642 145.924088,174.069260 150.373444,184.449692 
	C153.233780,191.123001 158.887833,194.804855 166.173004,194.740936 
	C173.379333,194.677704 178.982803,191.277771 181.890961,184.404190 
	C185.777771,175.217545 190.051804,166.140457 193.134476,156.682251 
	C196.618561,145.992432 198.966431,134.932281 201.767151,124.191437 
	C206.249634,140.656754 213.791656,156.146591 222.861496,170.941269 
	C230.239868,182.976822 244.716324,183.510300 252.191238,171.634247 
	C262.520996,155.222504 271.025665,137.939346 274.979645,118.729050 
	C275.217834,117.571732 276.142212,116.555641 276.752777,115.866425 
	C277.285248,119.370361 277.575195,122.544418 278.378784,125.582611 
	C282.722290,142.003769 290.242920,157.026413 299.217407,171.323502 
	C306.724762,183.283310 321.055908,183.262726 328.612488,171.265030 
	C332.507324,165.081085 336.092346,158.632019 339.108002,151.981110 
	C343.387848,142.542038 347.013489,132.806320 350.775818,123.548851 
	C353.009888,144.537994 360.234131,164.483810 369.368530,183.859146 
	C372.593597,190.699951 377.864929,194.695328 385.332123,194.758209 
	C393.026825,194.823013 398.668671,190.864014 401.658600,183.700348 
	C405.951996,173.413727 410.037018,163.040146 414.210968,152.703690 
M203.916840,239.150970 
	C208.263000,233.495895 205.883850,226.971924 206.083328,220.841324 
	C206.220352,216.629333 203.433228,214.119720 199.146530,213.918762 
	C194.823166,213.716095 191.763123,216.120468 191.598892,220.217178 
	C191.362961,226.103195 192.176285,232.031281 191.697266,238.105713 
	C185.923752,240.084747 179.569687,241.114319 174.486618,244.222488 
	C159.787796,253.210556 160.040924,272.299011 174.881927,281.094971 
	C187.535202,288.594269 200.740616,288.463470 213.261200,280.670929 
	C225.220627,273.227661 227.779633,259.069000 218.555511,248.932297 
	C214.769943,244.772217 208.591003,242.790039 203.916840,239.150970 
M347.383942,239.971497 
	C343.556976,241.919525 339.318634,243.334900 335.979156,245.914139 
	C325.429138,254.062485 325.111938,269.363739 334.943085,278.281799 
	C348.014099,290.138794 371.771454,288.670074 383.241394,275.295959 
	C388.519501,269.141602 389.487427,260.604248 385.752716,253.365860 
	C381.610931,245.338470 374.598114,241.354279 366.168610,239.238129 
	C363.965454,238.685043 361.875122,237.682556 359.928802,235.968994 
	C360.003815,230.852081 360.263306,225.729019 360.092560,220.620316 
	C359.966949,216.861282 357.656586,214.522568 353.930634,213.974258 
	C350.235657,213.430527 346.742615,214.842758 346.117401,218.461380 
	C344.872894,225.664429 343.259491,233.162399 347.383942,239.971497 
M255.464417,258.895966 
	C259.872925,265.922028 265.899567,270.558594 274.415436,271.019318 
	C289.584137,271.840027 301.253418,258.308044 300.059753,241.479507 
	C299.585449,234.792648 296.462372,230.490936 289.945526,228.878235 
	C280.441772,226.526382 270.794617,226.600861 261.290436,228.978149 
	C255.753708,230.363052 252.625198,234.205322 251.789825,239.924271 
	C250.841110,246.419434 252.045578,252.489944 255.464417,258.895966 
z"/>
<path fill="#FFFFFE" opacity="1.000000" stroke="none" 
	d="
M276.747314,115.473831 
	C276.142212,116.555641 275.217834,117.571732 274.979645,118.729050 
	C271.025665,137.939346 262.520996,155.222504 252.191238,171.634247 
	C244.716324,183.510300 230.239868,182.976822 222.861496,170.941269 
	C213.791656,156.146591 206.249634,140.656754 201.767151,124.191437 
	C198.966431,134.932281 196.618561,145.992432 193.134476,156.682251 
	C190.051804,166.140457 185.777771,175.217545 181.890961,184.404190 
	C178.982803,191.277771 173.379333,194.677704 166.173004,194.740936 
	C158.887833,194.804855 153.233780,191.123001 150.373444,184.449692 
	C145.924088,174.069260 142.049057,163.442642 137.846191,152.555908 
	C152.613525,136.649246 171.323318,127.907394 191.565521,122.088966 
	C219.165207,114.155724 247.510834,112.120163 276.522583,112.542572 
	C276.899323,113.831398 276.823303,114.652611 276.747314,115.473831 
z"/>
<path fill="#FFFFFE" opacity="1.000000" stroke="none" 
	d="
M276.752747,115.866425 
	C276.823303,114.652611 276.899323,113.831398 276.987335,112.603325 
	C313.512939,112.356880 349.552368,115.305595 383.368195,130.799744 
	C394.813202,136.043762 405.183838,142.923767 414.054077,152.415131 
	C410.037018,163.040146 405.951996,173.413727 401.658600,183.700348 
	C398.668671,190.864014 393.026825,194.823013 385.332123,194.758209 
	C377.864929,194.695328 372.593597,190.699951 369.368530,183.859146 
	C360.234131,164.483810 353.009888,144.537994 350.775818,123.548851 
	C347.013489,132.806320 343.387848,142.542038 339.108002,151.981110 
	C336.092346,158.632019 332.507324,165.081085 328.612488,171.265030 
	C321.055908,183.262726 306.724762,183.283310 299.217407,171.323502 
	C290.242920,157.026413 282.722290,142.003769 278.378784,125.582611 
	C277.575195,122.544418 277.285248,119.370361 276.752747,115.866425 
z"/>
<path fill="#3CB767" opacity="1.000000" stroke="none" 
	d="
M377.956421,411.611633 
	C359.733154,418.668518 340.667419,422.631256 321.328949,424.771088 
	C305.020844,426.575592 288.550751,427.865570 272.160645,427.780487 
	C238.595673,427.606293 205.623734,422.690002 173.265533,412.035614 
	C182.028931,404.669617 191.143524,397.448334 200.580322,390.092499 
	C203.339676,389.892212 205.871765,389.359467 208.199326,389.832672 
	C232.892105,394.852905 257.844482,398.160675 282.998627,396.739868 
	C302.516815,395.637390 321.916229,392.426086 341.366547,390.135803 
	C343.997101,389.826050 346.616455,389.421112 349.674011,389.075439 
	C359.343811,396.496521 368.580536,403.902435 377.956421,411.611633 
z"/>
<path fill="#4E5961" opacity="1.000000" stroke="none" 
	d="
M346.311035,72.411407 
	C345.879395,66.620110 345.247620,61.166981 345.524994,55.760494 
	C345.736328,51.641129 348.643768,49.221653 352.917267,49.156525 
	C356.855316,49.096512 359.864746,52.179344 360.100281,56.551937 
	C360.296570,60.196098 360.132141,63.858387 360.191040,67.511620 
	C360.248932,71.105392 359.314148,74.266068 355.688934,75.615997 
	C352.062073,76.966560 348.809998,76.152084 346.311035,72.411407 
z"/>
<path fill="#4E5961" opacity="1.000000" stroke="none" 
	d="
M192.109253,53.473312 
	C194.371841,49.757900 197.296738,48.263729 201.158310,49.599674 
	C205.005508,50.930645 206.289871,53.989563 206.212799,57.851139 
	C206.139908,61.503979 206.318878,65.166908 206.120682,68.810913 
	C205.868088,73.455093 203.200424,76.062309 198.987213,76.155304 
	C194.869659,76.246185 191.615463,73.663597 191.416382,69.194077 
	C191.189301,64.095772 191.742325,58.962727 192.109253,53.473312 
z"/>
<path fill="#3DB768" opacity="1.000000" stroke="none" 
	d="
M265.322296,61.109016 
	C262.979126,65.263878 259.857269,66.869064 255.617294,65.140800 
	C250.851746,63.198311 246.602692,56.986317 247.293839,53.276424 
	C248.023224,49.361115 251.844864,46.602863 255.667191,47.232975 
	C260.819427,48.082325 266.064514,55.317841 265.322296,61.109016 
z"/>
<path fill="#3DB768" opacity="1.000000" stroke="none" 
	d="
M287.335510,53.654648 
	C289.180084,51.715126 290.557465,49.398151 292.527527,48.657261 
	C294.886932,47.769966 298.456543,47.189384 300.212280,48.379185 
	C302.200531,49.726540 303.617798,53.141979 303.744781,55.733604 
	C303.954224,60.007965 297.797821,65.437401 293.492096,65.741318 
	C287.795654,66.143410 284.825958,60.650570 287.335510,53.654648 
z"/>
<path fill="#F4EA72" opacity="1.000000" stroke="none" 
	d="
M101.911453,446.715088 
	C97.508095,444.844299 92.996643,442.783142 88.877762,440.115784 
	C73.233826,429.984985 59.215229,417.948395 47.166519,403.323059 
	C60.436317,398.669830 73.590874,393.847534 87.061981,390.191681 
	C98.082184,387.200989 106.593956,395.977692 105.017723,407.491241 
	C104.198524,413.475067 103.502716,419.485687 103.045380,425.506531 
	C102.521248,432.406860 102.323288,439.332001 101.911453,446.715088 
z"/>
<path fill="#EDA1AB" opacity="1.000000" stroke="none" 
	d="
M359.732971,236.886459 
	C361.875122,237.682556 363.965454,238.685043 366.168610,239.238129 
	C374.598114,241.354279 381.610931,245.338470 385.752716,253.365860 
	C389.487427,260.604248 388.519501,269.141602 383.241394,275.295959 
	C371.771454,288.670074 348.014099,290.138794 334.943085,278.281799 
	C325.111938,269.363739 325.429138,254.062485 335.979156,245.914139 
	C339.318634,243.334900 343.556976,241.919525 348.146423,240.014160 
	C353.472809,242.263443 356.930908,240.694870 359.732971,236.886459 
z"/>
<path fill="#EDA1AB" opacity="1.000000" stroke="none" 
	d="
M203.500763,239.817154 
	C208.591003,242.790039 214.769943,244.772217 218.555511,248.932297 
	C227.779633,259.069000 225.220627,273.227661 213.261200,280.670929 
	C200.740616,288.463470 187.535202,288.594269 174.881927,281.094971 
	C160.040924,272.299011 159.787796,253.210556 174.486618,244.222488 
	C179.569687,241.114319 185.923752,240.084747 192.374786,238.230164 
	C196.130692,241.731384 199.709717,241.531586 203.500763,239.817154 
z"/>
<path fill="#505761" opacity="1.000000" stroke="none" 
	d="
M255.278137,258.571350 
	C252.045578,252.489944 250.841110,246.419434 251.789825,239.924271 
	C252.625198,234.205322 255.753708,230.363052 261.290436,228.978149 
	C270.794617,226.600861 280.441772,226.526382 289.945526,228.878235 
	C296.462372,230.490936 299.585449,234.792648 300.059753,241.479507 
	C301.253418,258.308044 289.584137,271.840027 274.415436,271.019318 
	C265.899567,270.558594 259.872925,265.922028 255.278137,258.571350 
z"/>
<path fill="#525962" opacity="1.000000" stroke="none" 
	d="
M359.830872,236.427734 
	C356.930908,240.694870 353.472809,242.263443 348.528625,239.973114 
	C343.259491,233.162399 344.872894,225.664429 346.117401,218.461380 
	C346.742615,214.842758 350.235657,213.430527 353.930634,213.974258 
	C357.656586,214.522568 359.966949,216.861282 360.092560,220.620316 
	C360.263306,225.729019 360.003815,230.852081 359.830872,236.427734 
z"/>
<path fill="#525962" opacity="1.000000" stroke="none" 
	d="
M203.708801,239.484070 
	C199.709717,241.531586 196.130692,241.731384 192.796997,238.148010 
	C192.176285,232.031281 191.362961,226.103195 191.598892,220.217178 
	C191.763123,216.120468 194.823166,213.716095 199.146530,213.918762 
	C203.433228,214.119720 206.220352,216.629333 206.083328,220.841324 
	C205.883850,226.971924 208.263000,233.495895 203.708801,239.484070 
z"/>
</svg>