<svg version="1.1" id="Layer_1" xmlns="http://www.w3.org/2000/svg"
	xmlns:xlink="http://www.w3.org/1999/xlink" x="0px" y="0px"
	width="100%" viewBox="0 0 512 512" enable-background="new 0 0 512 512" xml:space="preserve">
<path fill="#000000" opacity="0.000000" stroke="none" 
	d="
M231.000000,513.000000 
	C154.018661,513.000000 77.537323,513.000000 1.027995,513.000000 
	C1.027995,342.393646 1.027995,171.787262 1.027995,1.090449 
	C171.564697,1.090449 342.129456,1.090449 512.847107,1.090449 
	C512.847107,171.666565 512.847107,342.333252 512.847107,513.000000 
	C419.120575,513.000000 325.310272,513.000000 231.000000,513.000000 
M225.989120,383.796906 
	C232.442307,406.433228 261.237701,415.029785 279.377289,397.765900 
	C283.313812,394.019409 285.071716,387.983887 288.233978,382.242462 
	C288.201050,376.809906 288.168121,371.377380 288.020721,365.188263 
	C284.534210,351.925232 271.519012,341.241394 254.805786,341.832825 
	C242.367691,342.272980 227.138596,354.093475 225.152908,366.443634 
	C225.396103,371.975128 225.639282,377.506622 225.989120,383.796906 
M288.239502,126.247803 
	C288.442535,121.168755 288.645569,116.089699 288.750214,110.277512 
	C287.589294,107.447159 286.827576,104.359886 285.199524,101.830193 
	C277.460541,89.805298 266.280365,84.472443 252.089478,86.060410 
	C240.200531,87.390793 227.123154,98.680565 225.223068,110.368080 
	C225.441986,115.924538 225.660919,121.480988 225.982407,127.793839 
	C232.603333,150.852783 262.217377,158.879684 279.324005,141.842484 
	C283.221405,137.960876 285.051758,132.003754 288.239502,126.247803 
M226.029694,256.753540 
	C230.077225,272.048096 244.052109,280.282623 257.830658,279.796387 
	C271.933197,279.298737 285.277344,270.836365 288.834290,254.541092 
	C288.891388,251.218414 289.052368,247.893692 288.986694,244.573441 
	C288.762268,233.220413 282.916168,224.998795 273.640442,219.382355 
	C259.874573,211.047104 242.144379,213.986130 231.567398,226.934479 
	C224.471771,235.620987 223.395081,245.457199 226.029694,256.753540 
z"/>
<path fill="#F36925" opacity="1.000000" stroke="none" 
	d="
M226.162292,255.993561 
	C223.395081,245.457199 224.471771,235.620987 231.567398,226.934479 
	C242.144379,213.986130 259.874573,211.047104 273.640442,219.382355 
	C282.916168,224.998795 288.762268,233.220413 288.986694,244.573441 
	C289.052368,247.893692 288.891388,251.218414 288.052429,254.808014 
	C283.982849,255.380661 280.696411,255.933411 277.407227,255.950638 
	C260.325958,256.040131 243.244003,255.993073 226.162292,255.993561 
z"/>
<path fill="#F12E13" opacity="1.000000" stroke="none" 
	d="
M225.946671,109.871521 
	C227.123154,98.680565 240.200531,87.390793 252.089478,86.060410 
	C266.280365,84.472443 277.460541,89.805298 285.199524,101.830193 
	C286.827576,104.359886 287.589294,107.447159 288.340515,110.641083 
	C269.339966,111.002937 250.748962,111.036545 232.158524,110.949997 
	C230.086273,110.940346 228.017212,110.247520 225.946671,109.871521 
z"/>
<path fill="#F4A236" opacity="1.000000" stroke="none" 
	d="
M225.870285,365.961731 
	C227.138596,354.093475 242.367691,342.272980 254.805786,341.832825 
	C271.519012,341.241394 284.534210,351.925232 287.601135,365.578857 
	C266.744446,365.966888 246.307358,365.964294 225.870285,365.961731 
z"/>
<path fill="#F23F18" opacity="1.000000" stroke="none" 
	d="
M287.833496,127.001923 
	C285.051758,132.003754 283.221405,137.960876 279.324005,141.842484 
	C262.217377,158.879684 232.603333,150.852783 226.407471,127.407471 
	C247.166183,127.014709 267.499847,127.008316 287.833496,127.001923 
z"/>
<path fill="#F5B33B" opacity="1.000000" stroke="none" 
	d="
M287.833069,383.002655 
	C285.071716,387.983887 283.313812,394.019409 279.377289,397.765900 
	C261.237701,415.029785 232.442307,406.433228 226.411896,383.409302 
	C247.167465,383.015320 267.500275,383.009003 287.833069,383.002655 
z"/>
<path fill="#F3792A" opacity="1.000000" stroke="none" 
	d="
M226.095993,256.373535 
	C243.244003,255.993073 260.325958,256.040131 277.407227,255.950638 
	C280.696411,255.933411 283.982849,255.380661 287.699310,255.055801 
	C285.277344,270.836365 271.933197,279.298737 257.830658,279.796387 
	C244.052109,280.282623 230.077225,272.048096 226.095993,256.373535 
z"/>
<path fill="#F5AB39" opacity="1.000000" stroke="none" 
	d="
M288.033508,382.622559 
	C267.500275,383.009003 247.167465,383.015320 226.358551,383.029907 
	C225.639282,377.506622 225.396103,371.975128 225.511597,366.202698 
	C246.307358,365.964294 266.744446,365.966888 287.658356,365.957153 
	C288.168121,371.377380 288.201050,376.809906 288.033508,382.622559 
z"/>
<path fill="#F13716" opacity="1.000000" stroke="none" 
	d="
M288.036499,126.624863 
	C267.499847,127.008316 247.166183,127.014709 226.356186,127.029266 
	C225.660919,121.480988 225.441986,115.924538 225.584869,110.119797 
	C228.017212,110.247520 230.086273,110.940346 232.158524,110.949997 
	C250.748962,111.036545 269.339966,111.002937 288.389709,111.007645 
	C288.645569,116.089699 288.442535,121.168755 288.036499,126.624863 
z"/>
</svg>