<svg version="1.1" id="Layer_1" xmlns="http://www.w3.org/2000/svg" xmlns:xlink="http://www.w3.org/1999/xlink" x="0px" y="0px"
	 width="100%" viewBox="0 0 512 512" enable-background="new 0 0 512 512" xml:space="preserve">
<path fill="#000000" opacity="0.000000" stroke="none" 
	d="
M298.000000,513.000000 
	C198.690781,513.000000 99.881554,513.000000 1.036167,513.000000 
	C1.036167,342.399078 1.036167,171.798172 1.036167,1.098622 
	C171.559235,1.098622 342.118561,1.098622 512.838928,1.098622 
	C512.838928,171.666550 512.838928,342.333252 512.838928,513.000000 
	C441.464813,513.000000 369.982391,513.000000 298.000000,513.000000 
M292.893646,233.219528 
	C292.155701,230.544220 291.417755,227.868927 290.622742,224.986877 
	C283.829651,228.414398 277.317474,231.667175 270.835236,234.978668 
	C261.426697,239.785126 252.089233,239.663834 242.718887,234.828339 
	C236.398087,231.566559 230.005753,228.443375 223.250046,225.060196 
	C222.494904,228.279663 221.825012,231.135666 220.890182,234.725113 
	C220.260666,237.135696 219.884476,239.650833 218.942764,241.932556 
	C217.497345,245.434601 218.729523,247.644379 221.305695,250.089615 
	C228.307877,256.735901 234.927505,263.785339 241.933380,270.427551 
	C243.409988,271.827515 245.864334,272.808685 247.909500,272.885712 
	C255.057297,273.154877 263.012451,274.878204 269.159851,272.370026 
	C275.287964,269.869720 279.612335,262.945526 284.722382,257.955627 
	C285.794586,256.908630 286.690765,255.593246 287.928986,254.818649 
	C296.483398,249.467239 296.601776,242.204132 292.893646,233.219528 
M356.407959,431.829010 
	C367.791962,426.007141 380.026764,424.401550 392.735138,425.068512 
	C392.735138,379.461060 392.735138,334.398743 392.735138,289.292145 
	C360.739899,289.292145 329.010376,289.292145 297.000000,289.292145 
	C297.000000,309.889130 297.012329,330.195221 296.993774,350.501343 
	C296.986603,358.346710 294.346039,360.986786 286.505310,360.993988 
	C266.839722,361.012115 247.174088,361.011871 227.508499,360.994141 
	C219.648148,360.987030 217.013870,358.361328 217.006058,350.523163 
	C216.987289,331.690857 216.999939,312.858521 216.999924,294.026215 
	C216.999924,292.430054 216.999924,290.833862 216.999924,289.337555 
	C184.648453,289.337555 152.918518,289.337555 121.363297,289.337555 
	C121.363297,334.739319 121.363297,379.802795 121.363297,424.734680 
	C160.372498,424.560638 184.323608,442.997467 192.969452,480.658966 
	C200.997269,480.658966 208.913132,480.658966 217.000046,480.658966 
	C217.000046,467.832092 216.971359,455.345520 217.011337,442.859131 
	C217.033508,435.932159 219.836578,433.029724 226.615570,433.015625 
	C246.947708,432.973297 267.280090,432.967712 287.612152,433.019745 
	C294.086365,433.036316 296.952148,435.998901 296.984375,442.597534 
	C297.039703,453.930023 296.990814,465.262939 297.011505,476.595612 
	C297.014099,478.020935 297.172668,479.445953 297.246429,480.664062 
	C305.637817,480.664062 313.565399,480.664062 321.468964,480.664062 
	C325.170166,458.773834 336.412445,442.586395 356.407959,431.829010 
M310.278870,192.581711 
	C311.148071,189.913971 312.739777,187.254547 312.770569,184.577179 
	C312.988586,165.621750 312.886536,146.662643 312.886536,127.456749 
	C304.118744,128.426315 296.756622,125.530106 289.927887,120.619301 
	C284.937256,117.030350 279.807312,113.614738 274.580200,110.379158 
	C262.868652,103.129707 251.034531,103.134163 239.337402,110.430809 
	C234.262070,113.596802 229.253677,116.894028 224.408386,120.399117 
	C217.475830,125.414162 210.002945,128.445847 200.998520,127.467102 
	C200.998520,145.424545 201.081650,163.055115 200.967026,180.684402 
	C200.899277,191.103363 205.455673,198.406631 214.776062,202.978302 
	C226.547379,208.752121 238.286011,214.596252 249.952942,220.577438 
	C254.636948,222.978745 259.064209,223.096756 263.738495,220.690643 
	C275.692444,214.537415 287.836121,208.735565 299.607605,202.255005 
	C303.523804,200.099014 306.539642,196.307480 310.278870,192.581711 
M96.923508,340.421875 
	C93.826775,344.041473 90.730049,347.661102 87.623901,351.291687 
	C84.487244,348.381775 82.676399,346.701843 80.869789,345.025818 
	C75.616081,350.400787 70.519798,355.614685 65.268532,360.987152 
	C66.765945,362.641022 68.516663,364.574677 71.385902,367.743744 
	C68.301125,370.266022 65.024246,372.388702 62.442333,375.159088 
	C54.077854,384.134064 49.458183,394.961182 49.169220,407.166565 
	C48.755619,424.636444 48.903008,442.123840 49.063259,459.601410 
	C49.154510,469.553741 55.782211,478.265625 65.633179,480.033295 
	C73.166466,481.385071 81.023361,480.933502 88.628693,481.279205 
	C88.628693,467.269562 88.628693,454.220917 88.628693,440.852539 
	C83.319069,440.852539 78.377350,440.852539 73.281807,440.852539 
	C73.281807,435.467987 73.281807,430.415314 73.281807,424.865112 
	C83.943794,424.865112 94.335602,424.865112 104.632248,424.865112 
	C104.632248,394.054474 104.632248,363.745422 104.632248,331.839478 
	C101.611931,335.226044 99.518242,337.573608 96.923508,340.421875 
M429.622375,440.999634 
	C428.181702,441.086212 426.741058,441.172821 425.347076,441.256592 
	C425.347076,454.661377 425.347076,467.717743 425.347076,480.998077 
	C431.342926,480.998077 436.993927,481.065765 442.642761,480.984436 
	C455.534393,480.798859 464.900970,471.392456 464.976349,458.402008 
	C465.070129,442.238861 465.080353,426.074219 464.972168,409.911224 
	C464.877686,395.796936 459.941864,383.545471 450.037872,373.443970 
	C441.055481,364.282440 431.920807,355.270325 422.867737,346.177917 
	C421.742554,345.047913 420.705902,343.829742 419.562103,342.580170 
	C421.573151,340.441833 423.268372,338.639282 424.356750,337.482025 
	C419.106842,332.211212 414.032745,327.116913 409.344971,322.410492 
	C409.344971,356.036469 409.344971,390.399994 409.344971,425.274048 
	C420.083069,425.274048 430.481537,425.274048 440.735657,425.274048 
	C440.735657,430.729736 440.735657,435.671509 440.735657,440.999634 
	C437.181793,440.999634 433.886169,440.999634 429.622375,440.999634 
M276.318451,71.074287 
	C261.234680,67.072868 246.058029,66.995667 231.781815,73.271286 
	C219.047791,78.868988 207.063324,86.175659 194.784332,92.795425 
	C194.034958,93.199432 193.291077,94.112839 193.076767,94.928970 
	C191.712219,100.125420 193.874100,106.347916 197.917130,109.292580 
	C202.431396,112.580444 207.214401,112.489983 212.759827,108.866699 
	C218.607605,105.045868 224.305328,100.989159 230.226425,97.288017 
	C248.034409,86.156670 265.953522,86.159210 283.765808,97.274193 
	C289.688538,100.970016 295.431030,104.957985 301.209229,108.881157 
	C305.550964,111.829063 310.062103,112.686684 314.795990,110.044670 
	C319.313599,107.523346 321.307068,103.445992 320.931061,98.388451 
	C320.788757,96.474281 320.372131,93.567734 319.126282,92.903549 
	C305.226318,85.493286 291.139435,78.433655 276.318451,71.074287 
M259.470428,52.609768 
	C282.577911,52.361561 301.317444,64.256149 320.877106,75.394661 
	C320.877106,73.481293 320.958099,72.350670 320.865143,71.234543 
	C319.124146,50.331875 301.335846,33.443722 280.246857,33.074867 
	C264.752625,32.803867 249.249588,32.975227 233.751175,33.066700 
	C231.110916,33.082279 228.434738,33.502880 225.842087,34.052303 
	C206.917297,38.062756 191.948334,56.811890 193.405197,75.137383 
	C199.951355,71.527756 206.367050,68.097427 212.679901,64.487297 
	C226.881226,56.365986 242.107162,52.274796 259.470428,52.609768 
M280.999420,296.567993 
	C280.999420,294.136047 280.999420,291.704071 280.999420,289.363037 
	C264.637665,289.363037 248.911758,289.363037 233.232117,289.363037 
	C233.232117,308.000214 233.232117,326.273956 233.232117,344.722046 
	C249.189194,344.722046 264.913849,344.722046 280.999451,344.722046 
	C280.999451,328.814697 280.999451,313.182007 280.999420,296.567993 
M342.361359,466.982330 
	C340.694794,471.441437 339.028259,475.900513 337.223572,480.729187 
	C361.655182,480.729187 385.190247,480.729187 408.739136,480.729187 
	C408.739136,467.401245 408.739136,454.346924 408.739136,440.999420 
	C400.856873,440.999420 393.230591,440.878906 385.609375,441.023163 
	C366.580383,441.383362 352.250854,449.797791 342.361359,466.982330 
M161.606476,453.884308 
	C157.038223,450.906921 152.731033,447.381683 147.851898,445.056671 
	C134.181107,438.542145 119.544281,441.724670 105.276421,440.955536 
	C105.276421,454.627014 105.276421,467.683258 105.276421,480.844055 
	C128.975693,480.844055 152.397278,480.844055 176.171127,480.844055 
	C174.401169,470.276215 169.589783,461.628845 161.606476,453.884308 
M280.999451,473.431824 
	C280.999451,465.343536 280.999451,457.255249 280.999451,449.234375 
	C264.661743,449.234375 249.054413,449.234375 233.280380,449.234375 
	C233.280380,459.861084 233.280380,470.252502 233.280380,480.673523 
	C249.287247,480.673523 265.012146,480.673523 280.999451,480.673523 
	C280.999451,478.370422 280.999451,476.391296 280.999451,473.431824 
M329.591980,129.092880 
	C329.591980,139.618195 329.591980,150.143524 329.591980,160.687332 
	C338.731537,161.536453 344.498718,157.243439 344.982452,149.087250 
	C345.858490,134.316544 342.133636,129.149475 329.591980,129.092880 
M185.001724,155.381836 
	C185.001724,146.636810 185.001724,137.891785 185.001724,129.181793 
	C172.463058,128.629456 168.648331,133.297073 168.999496,148.069931 
	C169.213348,157.066269 174.705383,161.526169 185.001724,160.666412 
	C185.001724,159.265594 185.001724,157.807724 185.001724,155.381836 
M313.482330,273.005676 
	C317.717041,273.005676 321.951752,273.005676 326.186462,273.005676 
	C326.279205,272.701385 326.371948,272.397095 326.464691,272.092804 
	C319.745026,267.841339 313.025360,263.589844 307.534058,260.115570 
	C302.426788,264.664459 297.965637,268.637848 293.061646,273.005676 
	C299.946716,273.005676 306.217926,273.005676 313.482330,273.005676 
M201.511047,273.005676 
	C207.862213,273.005676 214.213364,273.005676 220.042816,273.005676 
	C215.819275,268.521881 211.674347,264.121521 207.365158,259.546783 
	C200.829025,263.711212 194.217926,267.923431 187.602951,272.138092 
	C187.942474,272.650970 188.021790,272.878571 188.104080,272.879639 
	C192.242111,272.933868 196.380402,272.968719 201.511047,273.005676 
z"/>
<path fill="#FAC850" opacity="1.000000" stroke="none" 
	d="
M356.068481,431.983215 
	C336.412445,442.586395 325.170166,458.773834 321.468964,480.664062 
	C313.565399,480.664062 305.637817,480.664062 297.246429,480.664062 
	C297.172668,479.445953 297.014099,478.020935 297.011505,476.595612 
	C296.990814,465.262939 297.039703,453.930023 296.984375,442.597534 
	C296.952148,435.998901 294.086365,433.036316 287.612152,433.019745 
	C267.280090,432.967712 246.947708,432.973297 226.615570,433.015625 
	C219.836578,433.029724 217.033508,435.932159 217.011337,442.859131 
	C216.971359,455.345520 217.000046,467.832092 217.000046,480.658966 
	C208.913132,480.658966 200.997269,480.658966 192.969452,480.658966 
	C184.323608,442.997467 160.372498,424.560638 121.363297,424.734680 
	C121.363297,379.802795 121.363297,334.739319 121.363297,289.337555 
	C152.918518,289.337555 184.648453,289.337555 216.999924,289.337555 
	C216.999924,290.833862 216.999924,292.430054 216.999924,294.026215 
	C216.999939,312.858521 216.987289,331.690857 217.006058,350.523163 
	C217.013870,358.361328 219.648148,360.987030 227.508499,360.994141 
	C247.174088,361.011871 266.839722,361.012115 286.505310,360.993988 
	C294.346039,360.986786 296.986603,358.346710 296.993774,350.501343 
	C297.012329,330.195221 297.000000,309.889130 297.000000,289.292145 
	C329.010376,289.292145 360.739899,289.292145 392.735138,289.292145 
	C392.735138,334.398743 392.735138,379.461060 392.735138,425.068512 
	C380.026764,424.401550 367.791962,426.007141 356.068481,431.983215 
M313.012207,352.964691 
	C314.273529,358.978088 316.496765,360.947296 322.420959,360.986877 
	C331.405823,361.046875 340.393829,361.132629 349.376129,360.967529 
	C364.731567,360.685303 376.693787,348.604614 376.980377,333.189606 
	C377.097900,326.868774 377.065948,320.543182 376.984406,314.221252 
	C376.904358,308.019348 373.968475,305.069763 367.766632,305.016968 
	C358.782013,304.940491 349.794586,304.889679 340.811279,305.023285 
	C325.215607,305.255219 313.224548,317.405518 313.012665,333.101288 
	C312.927338,339.423157 312.998047,345.747070 313.012207,352.964691 
M147.524551,353.000000 
	C165.256729,353.000000 182.988907,353.000000 200.692108,353.000000 
	C200.692108,347.358490 200.692108,342.301208 200.692108,337.291443 
	C179.348206,337.291443 158.313538,337.291443 137.309570,337.291443 
	C137.309570,342.644836 137.309570,347.702118 137.309570,353.000000 
	C140.589981,353.000000 143.562943,353.000000 147.524551,353.000000 
M168.999954,312.520325 
	C168.999954,315.277130 168.999954,318.033966 168.999954,320.690338 
	C180.011795,320.690338 190.387100,320.690338 200.678772,320.690338 
	C200.678772,315.320618 200.678772,310.268433 200.678772,305.314240 
	C189.979614,305.314240 179.604416,305.314240 168.999954,305.314240 
	C168.999954,307.597870 168.999954,309.572876 168.999954,312.520325 
M136.999954,312.520355 
	C136.999954,315.274109 136.999954,318.027893 136.999954,320.686462 
	C142.675034,320.686462 147.722626,320.686462 152.684479,320.686462 
	C152.684479,315.318878 152.684479,310.272369 152.684479,305.317810 
	C147.316971,305.317810 142.269531,305.317810 136.999954,305.317810 
	C136.999954,307.605347 136.999954,309.576630 136.999954,312.520355 
z"/>
<path fill="#FED3CE" opacity="1.000000" stroke="none" 
	d="
M310.122986,192.922684 
	C306.539642,196.307480 303.523804,200.099014 299.607605,202.255005 
	C287.836121,208.735565 275.692444,214.537415 263.738495,220.690643 
	C259.064209,223.096756 254.636948,222.978745 249.952942,220.577438 
	C238.286011,214.596252 226.547379,208.752121 214.776062,202.978302 
	C205.455673,198.406631 200.899277,191.103363 200.967026,180.684402 
	C201.081650,163.055115 200.998520,145.424545 200.998520,127.467102 
	C210.002945,128.445847 217.475830,125.414162 224.408386,120.399117 
	C229.253677,116.894028 234.262070,113.596802 239.337402,110.430809 
	C251.034531,103.134163 262.868652,103.129707 274.580200,110.379158 
	C279.807312,113.614738 284.937256,117.030350 289.927887,120.619301 
	C296.756622,125.530106 304.118744,128.426315 312.886536,127.456749 
	C312.886536,146.662643 312.988586,165.621750 312.770569,184.577179 
	C312.739777,187.254547 311.148071,189.913971 310.122986,192.922684 
M260.100006,200.884949 
	C271.721588,199.709076 281.345673,191.074966 280.665192,180.832275 
	C274.226135,181.924332 267.528656,179.149536 261.239349,183.869919 
	C259.223938,185.382523 254.003036,185.203156 251.953522,183.607803 
	C245.802719,178.820023 239.396637,182.067169 232.608261,181.617462 
	C234.129410,186.004700 235.596909,190.352066 238.401123,193.513901 
	C243.801880,199.603394 251.241913,201.348633 260.100006,200.884949 
M285.607758,129.001724 
	C284.170471,129.001724 282.733215,129.001724 281.262726,129.001724 
	C281.262726,134.585007 281.262726,139.646378 281.262726,144.735016 
	C286.589325,144.735016 291.650879,144.735016 296.732849,144.735016 
	C296.732849,139.406052 296.732849,134.344513 296.732849,129.001724 
	C293.174011,129.001724 289.877289,129.001724 285.607758,129.001724 
M217.001724,134.582092 
	C217.001724,138.002701 217.001724,141.423325 217.001724,144.674606 
	C222.711655,144.674606 227.774628,144.674606 232.672165,144.674606 
	C232.672165,139.283173 232.672165,134.219925 232.672165,129.153763 
	C227.401489,129.153763 222.458344,129.153763 217.585098,129.153763 
	C217.353073,129.572586 217.085358,129.840134 217.069763,130.121643 
	C217.005463,131.282532 217.017654,132.447662 217.001724,134.582092 
z"/>
<path fill="#F95D3F" opacity="1.000000" stroke="none" 
	d="
M97.174034,340.171509 
	C99.518242,337.573608 101.611931,335.226044 104.632248,331.839478 
	C104.632248,363.745422 104.632248,394.054474 104.632248,424.865112 
	C94.335602,424.865112 83.943794,424.865112 73.281807,424.865112 
	C73.281807,430.415314 73.281807,435.467987 73.281807,440.852539 
	C78.377350,440.852539 83.319069,440.852539 88.628693,440.852539 
	C88.628693,454.220917 88.628693,467.269562 88.628693,481.279205 
	C81.023361,480.933502 73.166466,481.385071 65.633179,480.033295 
	C55.782211,478.265625 49.154510,469.553741 49.063259,459.601410 
	C48.903008,442.123840 48.755619,424.636444 49.169220,407.166565 
	C49.458183,394.961182 54.077854,384.134064 62.442333,375.159088 
	C65.024246,372.388702 68.301125,370.266022 71.385902,367.743744 
	C68.516663,364.574677 66.765945,362.641022 65.268532,360.987152 
	C70.519798,355.614685 75.616081,350.400787 80.869789,345.025818 
	C82.676399,346.701843 84.487244,348.381775 87.623901,351.291687 
	C90.730049,347.661102 93.826775,344.041473 97.174034,340.171509 
z"/>
<path fill="#F95D3F" opacity="1.000000" stroke="none" 
	d="
M430.106445,440.999634 
	C433.886169,440.999634 437.181793,440.999634 440.735657,440.999634 
	C440.735657,435.671509 440.735657,430.729736 440.735657,425.274048 
	C430.481537,425.274048 420.083069,425.274048 409.344971,425.274048 
	C409.344971,390.399994 409.344971,356.036469 409.344971,322.410492 
	C414.032745,327.116913 419.106842,332.211212 424.356750,337.482025 
	C423.268372,338.639282 421.573151,340.441833 419.562103,342.580170 
	C420.705902,343.829742 421.742554,345.047913 422.867737,346.177917 
	C431.920807,355.270325 441.055481,364.282440 450.037872,373.443970 
	C459.941864,383.545471 464.877686,395.796936 464.972168,409.911224 
	C465.080353,426.074219 465.070129,442.238861 464.976349,458.402008 
	C464.900970,471.392456 455.534393,480.798859 442.642761,480.984436 
	C436.993927,481.065765 431.342926,480.998077 425.347076,480.998077 
	C425.347076,467.717743 425.347076,454.661377 425.347076,441.256592 
	C426.741058,441.172821 428.181702,441.086212 430.106445,440.999634 
z"/>
<path fill="#F7C64F" opacity="1.000000" stroke="none" 
	d="
M276.710693,71.176895 
	C291.139435,78.433655 305.226318,85.493286 319.126282,92.903549 
	C320.372131,93.567734 320.788757,96.474281 320.931061,98.388451 
	C321.307068,103.445992 319.313599,107.523346 314.795990,110.044670 
	C310.062103,112.686684 305.550964,111.829063 301.209229,108.881157 
	C295.431030,104.957985 289.688538,100.970016 283.765808,97.274193 
	C265.953522,86.159210 248.034409,86.156670 230.226425,97.288017 
	C224.305328,100.989159 218.607605,105.045868 212.759827,108.866699 
	C207.214401,112.489983 202.431396,112.580444 197.917130,109.292580 
	C193.874100,106.347916 191.712219,100.125420 193.076767,94.928970 
	C193.291077,94.112839 194.034958,93.199432 194.784332,92.795425 
	C207.063324,86.175659 219.047791,78.868988 231.781815,73.271286 
	C246.058029,66.995667 261.234680,67.072868 276.710693,71.176895 
z"/>
<path fill="#F75C3E" opacity="1.000000" stroke="none" 
	d="
M258.976990,52.578156 
	C242.107162,52.274796 226.881226,56.365986 212.679901,64.487297 
	C206.367050,68.097427 199.951355,71.527756 193.405197,75.137383 
	C191.948334,56.811890 206.917297,38.062756 225.842087,34.052303 
	C228.434738,33.502880 231.110916,33.082279 233.751175,33.066700 
	C249.249588,32.975227 264.752625,32.803867 280.246857,33.074867 
	C301.335846,33.443722 319.124146,50.331875 320.865143,71.234543 
	C320.958099,72.350670 320.877106,73.481293 320.877106,75.394661 
	C301.317444,64.256149 282.577911,52.361561 258.976990,52.578156 
z"/>
<path fill="#FA7D29" opacity="1.000000" stroke="none" 
	d="
M280.999451,297.058655 
	C280.999451,313.182007 280.999451,328.814697 280.999451,344.722046 
	C264.913849,344.722046 249.189194,344.722046 233.232117,344.722046 
	C233.232117,326.273956 233.232117,308.000214 233.232117,289.363037 
	C248.911758,289.363037 264.637665,289.363037 280.999420,289.363037 
	C280.999420,291.704071 280.999420,294.136047 280.999451,297.058655 
z"/>
<path fill="#FED3CE" opacity="1.000000" stroke="none" 
	d="
M342.567017,466.671082 
	C352.250854,449.797791 366.580383,441.383362 385.609375,441.023163 
	C393.230591,440.878906 400.856873,440.999420 408.739136,440.999420 
	C408.739136,454.346924 408.739136,467.401245 408.739136,480.729187 
	C385.190247,480.729187 361.655182,480.729187 337.223572,480.729187 
	C339.028259,475.900513 340.694794,471.441437 342.567017,466.671082 
z"/>
<path fill="#FED3CE" opacity="1.000000" stroke="none" 
	d="
M161.871307,454.119385 
	C169.589783,461.628845 174.401169,470.276215 176.171127,480.844055 
	C152.397278,480.844055 128.975693,480.844055 105.276421,480.844055 
	C105.276421,467.683258 105.276421,454.627014 105.276421,440.955536 
	C119.544281,441.724670 134.181107,438.542145 147.851898,445.056671 
	C152.731033,447.381683 157.038223,450.906921 161.871307,454.119385 
z"/>
<path fill="#FED3CE" opacity="1.000000" stroke="none" 
	d="
M292.847137,233.989929 
	C296.601776,242.204132 296.483398,249.467239 287.928986,254.818649 
	C286.690765,255.593246 285.794586,256.908630 284.722382,257.955627 
	C279.612335,262.945526 275.287964,269.869720 269.159851,272.370026 
	C263.012451,274.878204 255.057297,273.154877 247.909500,272.885712 
	C245.864334,272.808685 243.409988,271.827515 241.933380,270.427551 
	C234.927505,263.785339 228.307877,256.735901 221.305695,250.089615 
	C218.729523,247.644379 217.497345,245.434601 218.942764,241.932556 
	C219.884476,239.650833 220.260666,237.135696 221.391144,234.365021 
	C224.175613,234.958740 226.662109,235.597061 228.710999,236.915482 
	C247.501694,249.007019 266.202698,249.532715 285.066406,237.039322 
	C287.337158,235.535400 290.238220,234.983231 292.847137,233.989929 
z"/>
<path fill="#FA7D29" opacity="1.000000" stroke="none" 
	d="
M280.999451,473.921997 
	C280.999451,476.391296 280.999451,478.370422 280.999451,480.673523 
	C265.012146,480.673523 249.287247,480.673523 233.280380,480.673523 
	C233.280380,470.252502 233.280380,459.861084 233.280380,449.234375 
	C249.054413,449.234375 264.661743,449.234375 280.999451,449.234375 
	C280.999451,457.255249 280.999451,465.343536 280.999451,473.921997 
z"/>
<path fill="#F7B6AE" opacity="1.000000" stroke="none" 
	d="
M292.870392,233.604736 
	C290.238220,234.983231 287.337158,235.535400 285.066406,237.039322 
	C266.202698,249.532715 247.501694,249.007019 228.710999,236.915482 
	C226.662109,235.597061 224.175613,234.958740 221.523605,233.998291 
	C221.825012,231.135666 222.494904,228.279663 223.250046,225.060196 
	C230.005753,228.443375 236.398087,231.566559 242.718887,234.828339 
	C252.089233,239.663834 261.426697,239.785126 270.835236,234.978668 
	C277.317474,231.667175 283.829651,228.414398 290.622742,224.986877 
	C291.417755,227.868927 292.155701,230.544220 292.870392,233.604736 
z"/>
<path fill="#FED3CE" opacity="1.000000" stroke="none" 
	d="
M330.049683,129.050201 
	C342.133636,129.149475 345.858490,134.316544 344.982452,149.087250 
	C344.498718,157.243439 338.731537,161.536453 329.591980,160.687332 
	C329.591980,150.143524 329.591980,139.618195 330.049683,129.050201 
z"/>
<path fill="#FED3CE" opacity="1.000000" stroke="none" 
	d="
M185.001724,155.865845 
	C185.001724,157.807724 185.001724,159.265594 185.001724,160.666412 
	C174.705383,161.526169 169.213348,157.066269 168.999496,148.069931 
	C168.648331,133.297073 172.463058,128.629456 185.001724,129.181793 
	C185.001724,137.891785 185.001724,146.636810 185.001724,155.865845 
z"/>
<path fill="#F75C3E" opacity="1.000000" stroke="none" 
	d="
M312.985748,273.005676 
	C306.217926,273.005676 299.946716,273.005676 293.061646,273.005676 
	C297.965637,268.637848 302.426788,264.664459 307.534058,260.115570 
	C313.025360,263.589844 319.745026,267.841339 326.464691,272.092804 
	C326.371948,272.397095 326.279205,272.701385 326.186462,273.005676 
	C321.951752,273.005676 317.717041,273.005676 312.985748,273.005676 
z"/>
<path fill="#F75C3E" opacity="1.000000" stroke="none" 
	d="
M201.014862,273.005676 
	C196.380402,272.968719 192.242111,272.933868 188.104080,272.879639 
	C188.021790,272.878571 187.942474,272.650970 187.602951,272.138092 
	C194.217926,267.923431 200.829025,263.711212 207.365158,259.546783 
	C211.674347,264.121521 215.819275,268.521881 220.042816,273.005676 
	C214.213364,273.005676 207.862213,273.005676 201.014862,273.005676 
z"/>
<path fill="#020201" opacity="1.000000" stroke="none" 
	d="
M313.004974,352.517395 
	C312.998047,345.747070 312.927338,339.423157 313.012665,333.101288 
	C313.224548,317.405518 325.215607,305.255219 340.811279,305.023285 
	C349.794586,304.889679 358.782013,304.940491 367.766632,305.016968 
	C373.968475,305.069763 376.904358,308.019348 376.984406,314.221252 
	C377.065948,320.543182 377.097900,326.868774 376.980377,333.189606 
	C376.693787,348.604614 364.731567,360.685303 349.376129,360.967529 
	C340.393829,361.132629 331.405823,361.046875 322.420959,360.986877 
	C316.496765,360.947296 314.273529,358.978088 313.004974,352.517395 
M354.642700,343.527435 
	C363.841125,337.953918 360.255737,329.092010 361.050079,321.014221 
	C353.921600,321.014221 347.449646,320.889832 340.984802,321.050720 
	C335.030304,321.198853 330.019928,325.091553 329.330353,330.694458 
	C328.755859,335.362305 329.212585,340.157043 329.212585,345.535553 
	C337.788055,344.969849 345.863617,344.437103 354.642700,343.527435 
z"/>
<path fill="#000000" opacity="1.000000" stroke="none" 
	d="
M147.030228,353.000000 
	C143.562943,353.000000 140.589981,353.000000 137.309570,353.000000 
	C137.309570,347.702118 137.309570,342.644836 137.309570,337.291443 
	C158.313538,337.291443 179.348206,337.291443 200.692108,337.291443 
	C200.692108,342.301208 200.692108,347.358490 200.692108,353.000000 
	C182.988907,353.000000 165.256729,353.000000 147.030228,353.000000 
z"/>
<path fill="#000000" opacity="1.000000" stroke="none" 
	d="
M168.999954,312.034088 
	C168.999954,309.572876 168.999954,307.597870 168.999954,305.314240 
	C179.604416,305.314240 189.979614,305.314240 200.678772,305.314240 
	C200.678772,310.268433 200.678772,315.320618 200.678772,320.690338 
	C190.387100,320.690338 180.011795,320.690338 168.999954,320.690338 
	C168.999954,318.033966 168.999954,315.277130 168.999954,312.034088 
z"/>
<path fill="#000000" opacity="1.000000" stroke="none" 
	d="
M136.999954,312.034119 
	C136.999954,309.576630 136.999954,307.605347 136.999954,305.317810 
	C142.269531,305.317810 147.316971,305.317810 152.684479,305.317810 
	C152.684479,310.272369 152.684479,315.318878 152.684479,320.686462 
	C147.722626,320.686462 142.675034,320.686462 136.999954,320.686462 
	C136.999954,318.027893 136.999954,315.274109 136.999954,312.034119 
z"/>
<path fill="#020201" opacity="1.000000" stroke="none" 
	d="
M259.658234,200.914459 
	C251.241913,201.348633 243.801880,199.603394 238.401123,193.513901 
	C235.596909,190.352066 234.129410,186.004700 232.608261,181.617462 
	C239.396637,182.067169 245.802719,178.820023 251.953522,183.607803 
	C254.003036,185.203156 259.223938,185.382523 261.239349,183.869919 
	C267.528656,179.149536 274.226135,181.924332 280.665192,180.832275 
	C281.345673,191.074966 271.721588,199.709076 259.658234,200.914459 
z"/>
<path fill="#000000" opacity="1.000000" stroke="none" 
	d="
M286.094177,129.001724 
	C289.877289,129.001724 293.174011,129.001724 296.732849,129.001724 
	C296.732849,134.344513 296.732849,139.406052 296.732849,144.735016 
	C291.650879,144.735016 286.589325,144.735016 281.262726,144.735016 
	C281.262726,139.646378 281.262726,134.585007 281.262726,129.001724 
	C282.733215,129.001724 284.170471,129.001724 286.094177,129.001724 
z"/>
<path fill="#000000" opacity="1.000000" stroke="none" 
	d="
M217.001724,134.096649 
	C217.017654,132.447662 217.005463,131.282532 217.069763,130.121643 
	C217.085358,129.840134 217.353073,129.572586 217.585098,129.153763 
	C222.458344,129.153763 227.401489,129.153763 232.672165,129.153763 
	C232.672165,134.219925 232.672165,139.283173 232.672165,144.674606 
	C227.774628,144.674606 222.711655,144.674606 217.001724,144.674606 
	C217.001724,141.423325 217.001724,138.002701 217.001724,134.096649 
z"/>
<path fill="#FEFEFD" opacity="1.000000" stroke="none" 
	d="
M354.290955,343.715912 
	C345.863617,344.437103 337.788055,344.969849 329.212585,345.535553 
	C329.212585,340.157043 328.755859,335.362305 329.330353,330.694458 
	C330.019928,325.091553 335.030304,321.198853 340.984802,321.050720 
	C347.449646,320.889832 353.921600,321.014221 361.050079,321.014221 
	C360.255737,329.092010 363.841125,337.953918 354.290955,343.715912 
z"/>
</svg>